<svg width="1000" height="500" viewBox="0 0 1000 500" fill="none" xmlns="http://www.w3.org/2000/svg">
<g clip-path="url(#clip0_12_20)">
<rect width="1000" height="500" fill="white"/>
<g clip-path="url(#clip1_12_20)">
<rect width="1000" height="500" transform="translate(0.00317383)" fill="white"/>
<path d="M0.00317383 288H124.503L71.6321 324.297L0.00317383 371V288Z" fill="#0E8335"/>
<path d="M247.5 288H407.5L340.439 501H16L247.5 288Z" fill="#0E8335"/>
<path d="M887.003 288H1009V366L948.925 328.093L887.003 288Z" fill="#0E8335"/>
<path d="M600 282H762.887L999 501.5H672.5L600 282Z" fill="#0E8335"/>
<path d="M600 282H762.887L999 501.5H672.5L600 282Z" fill="#0E8335"/>
<path d="M-2.99683 276H1009V288H-2.99683V276Z" fill="black"/>
<path d="M-2.99683 230.744L1013 228.733V255.872V278.99L-2.99683 281V230.744Z" fill="#B84242"/>
<path d="M-2.99683 185.01L1013 183V188.277V211.395L895.562 213.405L776.756 215.415L523.666 217.426H256.466L-2.99683 213.405V185.01Z" fill="#B84242"/>
<path d="M295.003 249.748L384.583 254.317H419.36H526.153L571.118 250.179L596.411 245.067L617.84 240.93L646.997 233.628L717.958 214.642L761.87 201.012L827.737 183H929.787H1009L956.836 202.716L929.787 212.208L913.628 216.346L884.47 222.918L842.315 230.95L799.458 239.713L747.115 247.988L697.583 252.856L596.411 262.836L521.937 264.296L474.864 266L426.386 264.296H408.822L387.042 262.349L347.697 257.238L295.003 249.748Z" fill="white"/>
<path d="M111.003 195H127.003V203H111.003V195Z" fill="#8B8484"/>
<path d="M113.003 196H124.67V201.5H113.003V196Z" fill="#0B0B0B"/>
<rect x="115.003" y="183" width="7" height="42" fill="#A7A5A5"/>
<rect x="109.003" y="193" width="20" height="12" fill="#B5ABAB"/>
<path d="M111.003 195H127.003V203H111.003V195Z" fill="#8B8484"/>
<path d="M113.003 196H124.67V201.5H113.003V196Z" fill="#0B0B0B"/>
<path d="M273.003 193H289.003V201H273.003V193Z" fill="#8B8484"/>
<path d="M275.003 194H286.67V199.5H275.003V194Z" fill="#0B0B0B"/>
<rect x="278.003" y="182" width="7" height="42" fill="#A7A5A5"/>
<rect x="271.003" y="191" width="20" height="13" fill="#B5ABAB"/>
<path d="M273.003 194H289.003V202H273.003V194Z" fill="#8B8484"/>
<path d="M275.003 195H286.67V200.5H275.003V195Z" fill="#0B0B0B"/>
<path d="M417.003 192H433.003V200H417.003V192Z" fill="#8B8484"/>
<path d="M419.003 193H430.67V198.5H419.003V193Z" fill="#0B0B0B"/>
<rect x="422.003" y="181" width="7" height="42" fill="#A7A5A5"/>
<rect x="415.003" y="190" width="20" height="13" fill="#B5ABAB"/>
<path d="M417.003 193H433.003V201H417.003V193Z" fill="#8B8484"/>
<path d="M419.003 194H430.67V199.5H419.003V194Z" fill="#0B0B0B"/>
<path d="M599.003 193H615.003V201H599.003V193Z" fill="#8B8484"/>
<path d="M601.003 194H612.67V199.5H601.003V194Z" fill="#0B0B0B"/>
<rect x="604.003" y="181" width="7" height="42" fill="#A7A5A5"/>
<rect x="597.003" y="191" width="20" height="12" fill="#B5ABAB"/>
<path d="M599.003 193H615.003V201H599.003V193Z" fill="#8B8484"/>
<path d="M601.003 194H612.67V199.5H601.003V194Z" fill="#0B0B0B"/>
<path d="M760.003 191H776.003V199H760.003V191Z" fill="#8B8484"/>
<path d="M762.003 192H773.67V197.5H762.003V192Z" fill="#0B0B0B"/>
<rect x="765.003" y="180" width="7" height="42" fill="#A7A5A5"/>
<rect x="758.003" y="190" width="20" height="12" fill="#B5ABAB"/>
<path d="M760.003 192H776.003V200H760.003V192Z" fill="#8B8484"/>
<path d="M762.003 193H773.67V198.5H762.003V193Z" fill="#0B0B0B"/>
<path d="M898.003 190H914.003V197H898.003V190Z" fill="#8B8484"/>
<path d="M900.003 190.875H911.67V195.688H900.003V190.875Z" fill="#0B0B0B"/>
<rect x="902.003" y="178" width="7" height="42" fill="#A7A5A5"/>
<path d="M-2.99679 251.977C399.575 270.075 852.088 275.344 1010 229V280.516C704.829 280.8 302.177 280.717 -2.99683 281L-2.99679 251.977Z" fill="white"/>
<rect x="896.003" y="188" width="20" height="12" fill="#B5ABAB"/>
<path d="M898.003 190H914.003V198H898.003V190Z" fill="#8B8484"/>
<path d="M900.003 191H911.67V196.5H900.003V191Z" fill="#0B0B0B"/>
<path d="M-2.99683 211.162L1010 208V216.624C614.403 221.406 392.605 222.691 -2.99683 218.349V211.162Z" fill="black"/>
<path d="M-2.99683 109C389.776 116.532 611.491 123.149 1010 111.871V183.484C614.402 186.552 392.604 182.932 -2.99683 186V109Z" fill="#191919"/>
<path d="M64.7773 166.672L94.9893 166.672L108.69 184.825L48.9684 184.825L64.7773 166.672Z" fill="#D9D9D9"/>
<path d="M64.7773 166.672L94.9893 166.672L108.69 184.825L48.9684 184.825L64.7773 166.672Z" fill="#00BFFF"/>
<path d="M255.965 166.013L286.177 166.013L299.878 184.167L270.017 184.167L240.156 184.167L255.965 166.013Z" fill="#D9D9D9"/>
<path d="M255.965 166.013L286.177 166.013L299.878 184.167L270.017 184.167L240.156 184.167L255.965 166.013Z" fill="#00BFFF"/>
<path d="M670.297 166.014L700.509 166.014L714.21 184.167L654.489 184.167L670.297 166.014Z" fill="#D9D9D9"/>
<path d="M670.297 166.014L700.509 166.014L714.21 184.167L654.489 184.167L670.297 166.014Z" fill="#00BFFF"/>
<path d="M458.118 166.013L488.33 166.013L502.031 184.167L472.17 184.167L442.309 184.167L458.118 166.013Z" fill="#D9D9D9"/>
<path d="M458.118 166.013L488.33 166.013L502.031 184.167L472.17 184.167L442.309 184.167L458.118 166.013Z" fill="#00BFFF"/>
<path d="M881.561 165.7L911.773 165.7L925.474 183.853L895.613 183.853L865.752 183.853L881.561 165.7Z" fill="#00BEFD"/>
<path d="M881.561 165.7L911.773 165.7L925.474 183.853L895.613 183.853L865.752 183.853L881.561 165.7Z" fill="#00BFFF"/>
<path d="M-2.99683 0H1009V111.202L785.52 118H549.035H267.573L-2.99683 109.259V0Z" fill="url(#paint0_linear_12_20)"/>
<path d="M73.5032 90L94.7208 108.75H52.2856L73.5032 90Z" fill="white"/>
<path d="M534.503 92L555.721 110.75H513.286L534.503 92Z" fill="white"/>
<path d="M652.003 92L673.654 110.75H630.353L652.003 92Z" fill="white"/>
<path d="M778.003 92L799.654 110.75H756.353L778.003 92Z" fill="white"/>
<path d="M905.003 92L926.654 110.75H883.353L905.003 92Z" fill="white"/>
<path d="M414.003 90L435.654 108.75H392.353L414.003 90Z" fill="white"/>
<path d="M294.003 90L315.654 108.75H272.353L294.003 90Z" fill="white"/>
<path d="M174.003 90L195.654 108.75H152.353L174.003 90Z" fill="white"/>
<path d="M-2.99683 106.325C-2.99683 106.325 999.397 113.891 1000 108.5C1000.61 103.109 1002 116 1002 116L751.003 118H500.003H267.003L-2.99683 116V106.325Z" fill="#D9D9D9"/>
<path d="M273.003 250H289.003V258H273.003V250Z" fill="#8B8484"/>
<path d="M275.003 251H286.67V256.5H275.003V251Z" fill="#0B0B0B"/>
<rect x="278.003" y="239" width="7" height="41" fill="#A7A5A5"/>
<rect x="271.003" y="248" width="20" height="12" fill="#B5ABAB"/>
<path d="M273.003 251H289.003V259H273.003V251Z" fill="#8B8484"/>
<path d="M275.003 252H286.67V257.5H275.003V252Z" fill="#0B0B0B"/>
<path d="M111.003 250H127.003V258H111.003V250Z" fill="#8B8484"/>
<path d="M113.003 251H124.67V256.5H113.003V251Z" fill="#0B0B0B"/>
<rect x="115.003" y="239" width="7" height="41" fill="#A7A5A5"/>
<rect x="109.003" y="248" width="20" height="12" fill="#B5ABAB"/>
<path d="M111.003 251H127.003V259H111.003V251Z" fill="#8B8484"/>
<path d="M113.003 252H124.67V257.5H113.003V252Z" fill="#0B0B0B"/>
<path d="M417.003 250H434.003V258H417.003V250Z" fill="#8B8484"/>
<path d="M419.128 251H431.524V256.5H419.128V251Z" fill="#0B0B0B"/>
<rect x="422.003" y="239" width="7" height="41" fill="#A7A5A5"/>
<rect x="415.003" y="248" width="21" height="12" fill="#B5ABAB"/>
<path d="M417.003 251H434.003V259H417.003V251Z" fill="#8B8484"/>
<path d="M419.128 252H431.524V257.5H419.128V252Z" fill="#0B0B0B"/>
<path d="M599.003 250H615.003V258H599.003V250Z" fill="#8B8484"/>
<path d="M601.003 251H612.67V256.5H601.003V251Z" fill="#0B0B0B"/>
<rect x="604.003" y="239" width="7" height="41" fill="#A7A5A5"/>
<rect x="597.003" y="248" width="20" height="12" fill="#B5ABAB"/>
<path d="M599.003 251H615.003V259H599.003V251Z" fill="#8B8484"/>
<path d="M601.003 252H612.67V257.5H601.003V252Z" fill="#0B0B0B"/>
<path d="M760.003 250H776.003V258H760.003V250Z" fill="#8B8484"/>
<path d="M762.003 251H773.67V256.5H762.003V251Z" fill="#0B0B0B"/>
<rect x="765.003" y="239" width="7" height="41" fill="#A7A5A5"/>
<rect x="758.003" y="248" width="20" height="12" fill="#B5ABAB"/>
<path d="M760.003 251H776.003V259H760.003V251Z" fill="#8B8484"/>
<path d="M762.003 252H773.67V257.5H762.003V252Z" fill="#0B0B0B"/>
<path d="M898.003 251H914.003V259H898.003V251Z" fill="#8B8484"/>
<path d="M900.003 252H911.67V257.5H900.003V252Z" fill="#0B0B0B"/>
<rect x="902.003" y="240" width="7" height="41" fill="#A7A5A5"/>
<rect x="896.003" y="249" width="20" height="12" fill="#B5ABAB"/>
<path d="M898.003 252H914.003V259H898.003V252Z" fill="#8B8484"/>
<path d="M900.003 252.875H911.67V257.688H900.003V252.875Z" fill="#0B0B0B"/>
<path d="M124.503 288H247.503L-1.25575 518L-8.99683 376.331L124.503 288Z" fill="#054C1D"/>
<path d="M407.252 288H602.838L672.003 501H339.003L407.252 288Z" fill="#054C1D"/>
<path d="M758.003 288H890.223L1014 368.719L1009.78 518L758.003 288Z" fill="#054C1D"/>
<path d="M-1 299H791.5L798 305H-1V299Z" fill="white"/>
<path d="M193.5 303L206 303L-7.99985 510L-7.99985 493L193.5 303Z" fill="white"/>
<path d="M786 304.5L797 304.5L1014 505L1003 505L786 304.5Z" fill="white"/>
<path d="M987 358.5L990 363.5L953.5 364.5L946.5 359.5L987 358.5Z" fill="white"/>
<path d="M926 306L924.5 311.484L888.196 311.484L882 306L926 306Z" fill="white"/>
<path d="M945.999 362.501L953.999 361.001L950 446L942.999 442.001L945.999 362.501Z" fill="white"/>
<path d="M880.999 306L888.999 306L953.999 361.001L945.999 362.501L924.499 343.5L905 326.5L880.999 306Z" fill="white"/>
<path d="M880.999 306L888.999 306L884.999 391.001L877.999 385.001L880.999 306Z" fill="white"/>
<path d="M985 362L990.867 360.637L995.5 429L992 430.5L985 362Z" fill="white"/>
<path d="M917.334 306.351L925.334 306.273L990.867 360.637L985 362L961.198 343.425L941.533 326.616L917.334 306.351Z" fill="white"/>
<path d="M917.334 306.351L925.334 306.273L937.5 382.5L931.5 382.5L917.334 306.351Z" fill="white"/>
<path d="M117.5 378.5C295.5 375 300.5 454.5 43.0002 458.5" stroke="white" stroke-width="5"/>
<path d="M50.4999 455.5C-127.5 459 -132.5 379.5 125 375.5" stroke="white" stroke-width="5"/>
<line x1="899.326" y1="310.621" x2="956.326" y2="359.621" stroke="white"/>
<line x1="899.326" y1="310.621" x2="956.326" y2="359.621" stroke="white"/>
<line x1="904.326" y1="310.621" x2="961.326" y2="359.621" stroke="white"/>
<line x1="909.326" y1="310.621" x2="966.326" y2="359.621" stroke="white"/>
<line x1="914.326" y1="310.621" x2="971.326" y2="359.621" stroke="white"/>
<line x1="918.326" y1="310.621" x2="975.326" y2="359.621" stroke="white"/>
<path d="M927 314L897.5 314.5M930 316L900.5 316.5M933 318L903.5 318.5M935 320L905.5 320.5M937 322L907.5 322.5M940 324L910.5 324.5M942 326L912.5 326.5M944 328L914.5 328.5M925 312L895.5 312.5M947 330L917.5 330.5" stroke="white"/>
<path d="M949 332L919.5 332.5" stroke="white"/>
<path d="M952 334L922.5 334.5" stroke="white"/>
<path d="M957 336L927.5 336.5" stroke="white"/>
<path d="M958 338L928.5 338.5" stroke="white"/>
<path d="M958 340L928.5 340.5" stroke="white"/>
<path d="M993 425L949 440.554" stroke="white"/>
<path d="M993 420L949 435.554" stroke="white"/>
<path d="M993 416L949.41 430.642" stroke="white"/>
<path d="M993 411L949.41 425.642" stroke="white"/>
<path d="M993 406L949.41 420.642" stroke="white"/>
<path d="M993 400L949.41 414.642" stroke="white"/>
<path d="M993 395L949.41 409.642" stroke="white"/>
<path d="M989 393L949.41 404.642" stroke="white"/>
<path d="M989 389L949.819 399.73" stroke="white"/>
<path d="M989 384L949.41 395.642" stroke="white"/>
<path d="M989 379L949.41 390.642" stroke="white"/>
<path d="M989 374L949.819 384.73" stroke="white"/>
<path d="M989 368L949.41 379.642" stroke="white"/>
<path d="M989 363L949.819 373.73" stroke="white"/>
<path d="M995.5 429L949.5 445.5" stroke="white"/>
<path d="M960 342L930.5 342.5" stroke="white"/>
<path d="M963 344L933.5 344.5" stroke="white"/>
<path d="M965 346L934.848 347.258" stroke="white"/>
<path d="M968 349L938.5 349.5" stroke="white"/>
<path d="M972 352L942.5 352.5" stroke="white"/>
<path d="M975 355L944.848 356.258" stroke="white"/>
<path d="M932 382L884.5 385.5" stroke="white"/>
<path d="M932 379L884.5 382.5" stroke="white"/>
<path d="M932 376L885.152 378.742" stroke="white"/>
<path d="M932 372L884.5 375.5" stroke="white"/>
<path d="M932 369L885.152 371.742" stroke="white"/>
<path d="M932 366L885.152 368.742" stroke="white"/>
<path d="M932 363L885.152 365.742" stroke="white"/>
<path d="M932 360L884.5 363.5" stroke="white"/>
<path d="M932 357L884.5 360.5" stroke="white"/>
<path d="M932 354L884.5 357.5" stroke="white"/>
<path d="M932 351L885.152 353.742" stroke="white"/>
<path d="M932 348L885.152 350.742" stroke="white"/>
<path d="M932 345L885.152 347.742" stroke="white"/>
<path d="M924 342L885.152 344.742" stroke="white"/>
<path d="M924 339L885.152 341.742" stroke="white"/>
<path d="M924 336L885.804 337.983" stroke="white"/>
<path d="M915 333L885.804 334.983" stroke="white"/>
<path d="M915 330L885.804 331.983" stroke="white"/>
<path d="M911 327L886.456 328.225" stroke="white"/>
<path d="M911 324L886.456 325.225" stroke="white"/>
<path d="M905 321L886.456 322.225" stroke="white"/>
<path d="M902 318L886.455 319.225" stroke="white"/>
<path d="M898 315L886.455 316.225" stroke="white"/>
<path d="M924 342L885.152 344.742" stroke="white"/>
<path d="M937 382L884.5 385.5" stroke="white"/>
<path d="M892 315.5L888 385" stroke="white"/>
<path d="M959 364.5L957 443" stroke="white"/>
<path d="M964 362.5L961.5 441" stroke="white"/>
<path d="M969 360.5L966.5 439" stroke="white"/>
<path d="M975 359.5L973 437" stroke="white"/>
<path d="M980 357.5L978 435.5" stroke="white"/>
<path d="M987 366L986.003 399.986L985 433" stroke="white"/>
<path d="M895 315.5L891 385" stroke="white"/>
<path d="M898 315.5L895 385" stroke="white"/>
<path d="M903 311L899 385" stroke="white"/>
<path d="M907 311L903 384" stroke="white"/>
<path d="M911.5 310.5L908 384" stroke="white"/>
<path d="M916 310L912 383.5" stroke="white"/>
<path d="M921 314.5L917 383" stroke="white"/>
<path d="M926 313.5L923 383" stroke="white"/>
<path d="M995 429L937 382" stroke="white"/>
<path d="M992 422L934 375" stroke="white"/>
<path d="M993 418L935 371" stroke="white"/>
<path d="M991 412L933.652 364.242" stroke="white"/>
<path d="M990.5 405.5L931.652 357.242" stroke="white"/>
<path d="M991 400L927.5 349.5" stroke="white"/>
<path d="M991 395L927.5 344.5" stroke="white"/>
<path d="M990 386L927.152 334.742" stroke="white"/>
<path d="M988 380L925.152 328.742" stroke="white"/>
<path d="M987 374L924.152 322.742" stroke="white"/>
<path d="M987 369L924.804 316.983" stroke="white"/>
<path d="M941 384L929.5 314" stroke="white"/>
<path d="M945 389L933.5 319" stroke="white"/>
<path d="M949.758 391.652L937.5 321" stroke="white"/>
<path d="M955.517 397.304L942.5 326" stroke="white"/>
<path d="M962.275 402.956L948.5 331" stroke="white"/>
<path d="M969.033 407.608L954.5 335" stroke="white"/>
<path d="M974.792 412.259L959.5 339" stroke="white"/>
<path d="M991.792 426.259L976.5 353" stroke="white"/>
<path d="M989 390L931.762 342.114" stroke="white"/>
<path d="M882 307H886L883.5 383.5L880 381L882 307Z" fill="#D9D9D9"/>
<path d="M882.5 309L886 307L952.5 361.5L952.5 366.5L882.5 309Z" fill="#D9D9D9"/>
<path d="M948.5 359.5L952.5 363L948.5 443L945 440.5L948.5 359.5Z" fill="#D9D9D9"/>
</g>
<path d="M0.00317383 218.5L247.003 219.5H509.503L1000 216.5V229L0.00317383 232V218.5Z" fill="#534C4C"/>
<path d="M0.00317383 93C448.002 98.5 584.504 100.5 1000 94" stroke="white"/>
</g>
<defs>
<linearGradient id="paint0_linear_12_20" x1="521.978" y1="92.5062" x2="520.636" y2="-18.956" gradientUnits="userSpaceOnUse">
<stop stop-color="#00BEFD"/>
<stop offset="1" stop-color="#007197"/>
</linearGradient>
<clipPath id="clip0_12_20">
<rect width="1000" height="500" fill="white"/>
</clipPath>
<clipPath id="clip1_12_20">
<rect width="1000" height="500" fill="white" transform="translate(0.00317383)"/>
</clipPath>
</defs>
</svg>
