<svg width="54" height="53" viewBox="0 0 54 53" fill="none" xmlns="http://www.w3.org/2000/svg">
<g filter="url(#filter0_d_28_66)">
<ellipse cx="22" cy="21.5" rx="22" ry="21.5" transform="matrix(1 0 0 -1 5 43.9997)" fill="#FFF8F8"/>
<path fill-rule="evenodd" clip-rule="evenodd" d="M44.4606 35.5814L39.3835 35.9719C38.4039 39.0767 35.5881 41.2076 32.9085 42.5468C31.8069 43.0973 30.7097 43.5235 29.7372 43.8352C28.8404 43.944 27.9269 44 27 44C25.4199 44 23.8787 43.8372 22.393 43.5279C21.7379 43.2963 21.0495 43.0162 20.3593 42.6797C17.7856 41.4251 15.1017 39.3436 14.1177 35.9999L9.87666 36C9.60751 35.6743 9.3479 35.3409 9.09823 35L14.4966 34.9999L14.4983 34.9999C18.6187 34.9719 21.0848 34.5982 24.5062 33.5928C22.0911 33.0331 20.2071 32.3639 18.5292 31.4628C16.4351 30.3382 14.6908 28.8676 12.6491 26.856L12.6373 26.8445L12.6264 26.8322C10.8341 24.8172 9.5858 23.2908 8.77796 21.516C8.04932 19.9151 7.69238 18.1442 7.56546 15.6775C6.87871 16.3873 6.18046 17.1858 5.4657 18.0784C5.63223 17.2999 5.84185 16.5369 6.09201 15.7917C8.25232 13.3908 10.344 11.7767 12.5131 10.877C15.2444 9.74407 18.0398 9.76749 21.1453 10.6816L26.0621 1.75859L26.4768 1.00596C26.4982 1.00547 26.5197 1.00501 26.5412 1.00458L26.9425 1.76702L31.765 10.9299C34.7885 10.2988 37.8311 10.4366 40.2114 10.9175C41.4509 11.1679 42.5274 11.5146 43.3376 11.9056C43.7421 12.1008 44.0933 12.3132 44.3677 12.5397C44.603 12.734 44.813 12.9641 44.9314 13.2311L48.2374 16.8678C48.4168 17.5153 48.5659 18.1748 48.6834 18.845L45.0634 14.8629C45.0432 15.1193 45.011 15.3961 44.967 15.6889C44.8149 16.7024 44.5178 17.9346 44.0653 19.2218C43.1695 21.7699 41.6374 24.6097 39.3367 26.3719C37.3744 28.4743 35.7498 30.0796 33.8354 31.306C32.2882 32.2971 30.5688 33.0305 28.3519 33.5968C32.0544 34.7629 34.6609 34.9809 38.9819 34.9998L45.2446 34.5182C44.9941 34.8806 44.7327 35.2352 44.4606 35.5814ZM26.4918 34.0276C22.2415 35.3863 19.6316 35.9175 15.1633 35.9922C16.0989 38.7962 18.4193 40.6215 20.7975 41.7809C23.3438 43.0221 25.8633 43.4521 26.5362 43.501C26.6553 43.5097 26.9123 43.4923 27.305 43.4248C27.6857 43.3594 28.1625 43.2526 28.7053 43.101C29.7913 42.7978 31.1245 42.3204 32.4614 41.6522C34.9602 40.4035 37.3708 38.541 38.3183 35.9951C33.753 35.9495 30.9868 35.6173 26.4918 34.0276ZM19.0023 30.5818C20.9549 31.6304 23.2361 32.3647 26.4983 32.9905C29.4639 32.3993 31.5145 31.6051 33.2959 30.4639C35.031 29.3525 36.5351 27.897 38.3937 25.9161L31.0575 11.7328L31.0559 11.7296L26.4899 3.05425L13.6212 26.4085C15.5163 28.2536 17.1197 29.5708 19.0023 30.5818ZM32.2457 11.8533L39.1616 25.2239C41.0107 23.6128 42.317 21.1797 43.1219 18.8901C43.5548 17.6586 43.8359 16.4878 43.9781 15.5405C44.0493 15.0666 44.0846 14.6552 44.0884 14.3246C44.0923 13.9827 44.0615 13.7657 44.0256 13.658C44.0055 13.5976 43.9317 13.4765 43.7311 13.3109C43.5376 13.1512 43.2615 12.9792 42.903 12.8062C42.1871 12.4608 41.1948 12.1364 40.0134 11.8977C37.8179 11.4542 35.0266 11.3181 32.2457 11.8533ZM20.6504 11.5797L12.9047 25.6368C11.3752 23.8921 10.3601 22.5781 9.68812 21.1017C8.9542 19.4893 8.61305 17.6438 8.5302 14.7702L8.48754 14.7715C9.98427 13.3779 11.4358 12.4064 12.8963 11.8006C15.3073 10.8006 17.7969 10.7752 20.6504 11.5797Z" fill="url(#paint0_linear_28_66)"/>
<path d="M11.474 16.6002C11.474 16.6002 11.7595 17.4232 12.474 17.6002C13.1884 17.7772 14.474 15.1002 14.474 15.1002H12.474L11.474 16.6002Z" fill="black"/>
<path d="M13.0126 18.0408C13.0126 18.0408 13.5 19.0565 14.0393 18.9972C14.5786 18.9378 15.8438 16.5955 17 15.0566H15L13.0126 18.0408Z" fill="black"/>
<path d="M10 15.6495C10 15.6495 10.5 16.5565 11.1849 16.179C11.8698 15.8014 12.1849 15.1002 12.1849 15.1002L11.1849 15.1159L10 15.1002V15.6495Z" fill="black"/>
<path d="M26.25 7.39255L36.5 23.4997L26.5 4.49969L26.0104 6.94761L25.5 5.99969V7.99969L36 25.4997L26.25 7.39255Z" fill="#ED6649"/>
<path d="M26.25 7.39255L36.5 23.4997L26.5 4.49969L26.0104 6.94761L25.5 5.99969V7.99969L36 25.4997L26.25 7.39255Z" fill="#E42727" fill-opacity="0.53"/>
<path d="M25 8.49969L35 27.4997V26.4997L25 8.49969Z" fill="#ED6649"/>
<path d="M25 8.49969L35 27.4997V26.4997L25 8.49969Z" fill="#E42727" fill-opacity="0.53"/>
<path d="M32.5 25.4997L32 25.9997L30 19.9997L32.5 25.4997Z" fill="#ED6649"/>
<path d="M32.5 25.4997L32 25.9997L30 19.9997L32.5 25.4997Z" fill="#E42727" fill-opacity="0.53"/>
<path d="M29.5 21.4997L31.5 27.4997H31L29.5 21.4997Z" fill="#ED6649"/>
<path d="M29.5 21.4997L31.5 27.4997H31L29.5 21.4997Z" fill="#E42727" fill-opacity="0.53"/>
<path d="M22 11.4997L23 10.9997V11.9997L16.5 22.9997L22 11.4997Z" fill="#ED6649"/>
<path d="M22 11.4997L23 10.9997V11.9997L16.5 22.9997L22 11.4997Z" fill="#E42727" fill-opacity="0.53"/>
<path d="M17.5 23.4997V24.4997L23.5 13.9997L23 12.9997L17.5 23.4997Z" fill="#ED6649"/>
<path d="M17.5 23.4997V24.4997L23.5 13.9997L23 12.9997L17.5 23.4997Z" fill="#E42727" fill-opacity="0.53"/>
<path d="M18 25.4997L18.5 26.4997L24 14.9997L23.5 14.4997L18 25.4997Z" fill="#ED6649"/>
<path d="M18 25.4997L18.5 26.4997L24 14.9997L23.5 14.4997L18 25.4997Z" fill="#E42727" fill-opacity="0.53"/>
<path d="M20.5 25.9997L20 25.4997L22 20.8164L20.5 25.9997Z" fill="#ED6649"/>
<path d="M20.5 25.9997L20 25.4997L22 20.8164L20.5 25.9997Z" fill="#E42727" fill-opacity="0.53"/>
<path d="M21 26.9997V27.9997L23 20.9997L21 26.9997Z" fill="#ED6649"/>
<path d="M21 26.9997V27.9997L23 20.9997L21 26.9997Z" fill="#E42727" fill-opacity="0.53"/>
<path d="M22.5 26.9997L23 27.4997L23.5 21.9997L22.5 26.9997Z" fill="#ED6649"/>
<path d="M22.5 26.9997L23 27.4997L23.5 21.9997L22.5 26.9997Z" fill="#E42727" fill-opacity="0.53"/>
<path d="M26 21.9997L27 31.4997H26.5L26 21.9997Z" fill="#1154AC"/>
<path d="M27 21.9997L28 29.9997L27.5 21.9997H27Z" fill="#1154AC"/>
<path d="M28 22.4997L28.5 28.9997H29L28 22.4997Z" fill="#1154AC"/>
<path d="M28.5 21.9997L29.5 27.4997H30L28.5 21.9997Z" fill="#1154AC"/>
<path d="M24.5 22.9997L23.5 28.9997L25 22.9997H24.5Z" fill="#1154AC"/>
<path d="M26 21.9997L27 31.4997H26.5L26 21.9997Z" stroke="#3537CC"/>
<path d="M27 21.9997L28 29.9997L27.5 21.9997H27Z" stroke="#3537CC"/>
<path d="M28 22.4997L28.5 28.9997H29L28 22.4997Z" stroke="#3537CC"/>
<path d="M28.5 21.9997L29.5 27.4997H30L28.5 21.9997Z" stroke="#3537CC"/>
<path d="M24.5 22.9997L23.5 28.9997L25 22.9997H24.5Z" stroke="#3537CC"/>
<path d="M32 32.9997C37.7292 30.7132 43.5031 23.4731 45 17.9997C45.0941 20.4571 44.7101 23.451 41.5 27.9998C37.2158 32.3338 35.2875 33.3076 32 32.9997Z" fill="url(#paint1_linear_28_66)"/>
<path d="M39.6383 30.8373C38.1522 31.8375 36.3096 32.6926 34 33.4997C36.4351 32.7387 38.1541 31.9997 39.6383 30.8373C43.5808 28.1836 45.014 24.5086 46 17.9997L43 26.9997C41.8653 28.7032 40.8271 29.9061 39.6383 30.8373Z" fill="url(#paint2_linear_28_66)"/>
<path d="M46.5 18.4997C44.8625 26.7819 42.8793 30.5322 35.5 33.9997C39.075 33.7882 40.9786 33.4591 43 29.9997C47.531 21.3739 45.8907 22.0009 46.5 18.4997Z" fill="url(#paint3_linear_28_66)"/>
<path d="M40 33.4997C39.8205 33.9292 39.8217 34.1486 40 34.4997L41 33.4997C40.5885 33.1097 40.3625 32.9788 40 33.4997Z" fill="url(#paint4_linear_28_66)"/>
<path d="M45 32.4997H42C41.1886 33.3469 40.6039 33.8423 41 34.4997C41.4624 34.3286 41.5592 34.1786 43.5 34.4997C43.7909 33.6682 44.117 33.229 45 32.4997Z" fill="url(#paint5_linear_28_66)"/>
<path d="M40 33.4997C39.8205 33.9292 39.8217 34.1486 40 34.4997L41 33.4997C40.5885 33.1097 40.3625 32.9788 40 33.4997Z" stroke="black"/>
<path d="M45 32.4997H42C41.1886 33.3469 40.6039 33.8423 41 34.4997C41.4624 34.3286 41.5592 34.1786 43.5 34.4997C43.7909 33.6682 44.117 33.229 45 32.4997Z" stroke="black"/>
<path d="M47.5 19.4997C47.698 25.2076 47.6486 28.2949 45 31.9997L43 31.4997C45.3448 27.4261 46.189 24.6516 47.5 19.4997Z" fill="url(#paint6_linear_28_66)"/>
<path d="M19 32.5804C14.0893 30.6626 9.14018 24.5903 7.85714 19.9997C7.77645 22.0608 8.10565 24.5717 10.8572 28.3868C14.5294 32.0219 16.1822 32.8386 19 32.5804Z" fill="url(#paint7_linear_28_66)"/>
<path d="M12.4529 30.7667C13.7267 31.6056 15.3061 32.3228 17.2857 32.9997C15.1985 32.3614 13.725 31.7417 12.4529 30.7667C9.07358 28.541 7.84517 25.4588 7 19.9997L9.57143 27.5481C10.5441 28.9769 11.4339 29.9857 12.4529 30.7667Z" fill="url(#paint8_linear_28_66)"/>
<path d="M7 19.9997C8.33973 27.4804 9.96241 30.8678 16 33.9997C13.075 33.8087 11.5175 33.5114 9.86364 30.3868C6.15644 22.5958 7.49854 23.162 7 19.9997Z" fill="url(#paint9_linear_28_66)"/>
<path d="M11.8955 32.9997C12.0353 33.4292 12.0344 33.6486 11.8955 33.9997L11.1164 32.9997C11.437 32.6097 11.6131 32.4788 11.8955 32.9997Z" fill="url(#paint10_linear_28_66)"/>
<path d="M8 31.9997H10.3373C10.9695 32.8469 11.425 33.3423 11.1164 33.9997C10.7561 33.8286 10.6807 33.6786 9.16864 33.9997C8.94203 33.1682 8.68794 32.729 8 31.9997Z" fill="url(#paint11_linear_28_66)"/>
<path d="M11.8955 32.9997C12.0353 33.4292 12.0344 33.6486 11.8955 33.9997L11.1164 32.9997C11.437 32.6097 11.6131 32.4788 11.8955 32.9997Z" stroke="black"/>
<path d="M8 31.9997H10.3373C10.9695 32.8469 11.425 33.3423 11.1164 33.9997C10.7561 33.8286 10.6807 33.6786 9.16864 33.9997C8.94203 33.1682 8.68794 32.729 8 31.9997Z" stroke="black"/>
<path d="M6.06153 20.9997C5.88827 26.0226 5.93152 28.7395 8.24957 31.9997L10 31.5597C7.94784 27.975 7.20896 25.5334 6.06153 20.9997Z" fill="url(#paint12_linear_28_66)"/>
<path d="M34 37.9997L30.5 42.4997L34.5 38.4997L34 37.9997Z" fill="url(#paint13_linear_28_66)"/>
<path d="M35 38.4997V38.9997L31.5 41.9997L35 38.4997Z" fill="url(#paint14_linear_28_66)"/>
<path d="M32.5 41.4997L36 38.4997V38.9997L32.5 41.4997Z" fill="url(#paint15_linear_28_66)"/>
<path d="M34 37.9997L30.5 42.4997L34.5 38.4997L34 37.9997Z" stroke="black" stroke-width="1e-05"/>
<path d="M35 38.4997V38.9997L31.5 41.9997L35 38.4997Z" stroke="black" stroke-width="1e-05"/>
<path d="M32.5 41.4997L36 38.4997V38.9997L32.5 41.4997Z" stroke="black" stroke-width="1e-05"/>
<path d="M32.5 38.4997L30 41.9997L32.5 38.9997V38.4997Z" fill="url(#paint16_linear_28_66)"/>
<path d="M31.5 37.9997L29.5 41.4997L31.5 38.4997V37.9997Z" fill="url(#paint17_linear_28_66)"/>
<path d="M29.5 37.9997H30L29 40.9997L29.5 37.9997Z" fill="url(#paint18_linear_28_66)"/>
<path d="M29 36.9997L28.5 40.4997L29 37.9997V36.9997Z" fill="url(#paint19_linear_28_66)"/>
<path d="M26 34.9997V39.4997L25.5 34.9997H26Z" fill="url(#paint20_linear_28_66)"/>
<path d="M24.5 36.4997L25.5 39.9997L25 36.4997H24.5Z" fill="url(#paint21_linear_28_66)"/>
<path d="M24 36.9997V37.4997L25 40.4997L24 36.9997Z" fill="url(#paint22_linear_28_66)"/>
<path d="M23 38.4997L24.5 40.9997L23.5 37.9997L23 38.4997Z" fill="url(#paint23_linear_28_66)"/>
<path d="M22 37.9997L21.5 38.4997L24 41.4997L22 37.9997Z" fill="url(#paint24_linear_28_66)"/>
<path d="M21 38.4997L20.5 38.9997L23.5 41.9997L21 38.4997Z" fill="url(#paint25_linear_28_66)"/>
<path d="M32.5 38.4997L30 41.9997L32.5 38.9997V38.4997Z" stroke="black" stroke-width="1e-05"/>
<path d="M31.5 37.9997L29.5 41.4997L31.5 38.4997V37.9997Z" stroke="black" stroke-width="1e-05"/>
<path d="M29.5 37.9997H30L29 40.9997L29.5 37.9997Z" stroke="black" stroke-width="1e-05"/>
<path d="M29 36.9997L28.5 40.4997L29 37.9997V36.9997Z" stroke="black" stroke-width="1e-05"/>
<path d="M26 34.9997V39.4997L25.5 34.9997H26Z" stroke="black" stroke-width="1e-05"/>
<path d="M24.5 36.4997L25.5 39.9997L25 36.4997H24.5Z" stroke="black" stroke-width="1e-05"/>
<path d="M24 36.9997V37.4997L25 40.4997L24 36.9997Z" stroke="black" stroke-width="1e-05"/>
<path d="M23 38.4997L24.5 40.9997L23.5 37.9997L23 38.4997Z" stroke="black" stroke-width="1e-05"/>
<path d="M22 37.9997L21.5 38.4997L24 41.4997L22 37.9997Z" stroke="black" stroke-width="1e-05"/>
<path d="M21 38.4997L20.5 38.9997L23.5 41.9997L21 38.4997Z" stroke="black" stroke-width="1e-05"/>
<path d="M18 36.4997L23.5 42.4997L18 36.9997V36.4997Z" fill="url(#paint26_linear_28_66)"/>
<path d="M23 42.4997L18 38.4997V39.4997L23 42.4997Z" fill="url(#paint27_linear_28_66)"/>
<path d="M18 36.4997L23.5 42.4997L18 36.9997V36.4997Z" stroke="black" stroke-width="1e-05"/>
<path d="M23 42.4997L18 38.4997V39.4997L23 42.4997Z" stroke="black" stroke-width="1e-05"/>
<mask id="mask0_28_66" style="mask-type:alpha" maskUnits="userSpaceOnUse" x="5" y="0" width="44" height="44">
<ellipse cx="22" cy="21.5" rx="22" ry="21.5" transform="matrix(1 0 0 -1 5 43.9997)" fill="#FFF8F8"/>
</mask>
<g mask="url(#mask0_28_66)">
<path d="M12.0015 11.2364L11.8205 6.00038L11.3639 11.1394L12.0015 11.2364Z" fill="url(#paint28_linear_28_66)"/>
<path d="M11.0166 11.412L10.7263 11.0423L11.4161 6.91542L11.0166 11.412Z" fill="url(#paint29_linear_28_66)"/>
<path d="M11.0117 7.83046L10.3219 11.9574L10.0317 11.5877L11.0117 7.83046Z" fill="url(#paint30_linear_28_66)"/>
<path d="M12.0015 11.2364L11.8205 6.00038L11.3639 11.1394L12.0015 11.2364Z" stroke="black" stroke-width="1e-05"/>
<path d="M11.0166 11.412L10.7263 11.0423L11.4161 6.91542L11.0166 11.412Z" stroke="black" stroke-width="1e-05"/>
<path d="M11.0117 7.83046L10.3219 11.9574L10.0317 11.5877L11.0117 7.83046Z" stroke="black" stroke-width="1e-05"/>
<path d="M11.8691 10.7428L11.574 6.79149L11.5788 10.3731L11.8691 10.7428Z" fill="url(#paint31_linear_28_66)"/>
<path d="M12.854 10.5672L12.2115 6.88853L12.5637 10.1974L12.854 10.5672Z" fill="url(#paint32_linear_28_66)"/>
<path d="M14.2432 9.4765L13.8959 9.74916L12.8491 6.98558L14.2432 9.4765Z" fill="url(#paint33_linear_28_66)"/>
<path d="M15.171 9.94325L13.4867 7.08262L14.5906 9.20383L15.171 9.94325Z" fill="url(#paint34_linear_28_66)"/>
<path d="M18.4159 9.7861L15.8037 6.45871L18.7632 9.51343L18.4159 9.7861Z" fill="url(#paint35_linear_28_66)"/>
<path d="M18.5871 7.85898L15.8608 5.81634L18.2398 8.13164L18.5871 7.85898Z" fill="url(#paint36_linear_28_66)"/>
<path d="M18.6442 7.2166L18.354 6.84689L15.9179 5.17397L18.6442 7.2166Z" fill="url(#paint37_linear_28_66)"/>
<path d="M18.4681 5.56214L15.975 4.53159L18.4111 6.20452L18.4681 5.56214Z" fill="url(#paint38_linear_28_66)"/>
<path d="M19.453 5.38652L19.5101 4.74415L16.032 3.88922L19.453 5.38652Z" fill="url(#paint39_linear_28_66)"/>
<path d="M19.8574 4.47148L19.9145 3.82911L16.0891 3.24684L19.8574 4.47148Z" fill="url(#paint40_linear_28_66)"/>
<path d="M11.8691 10.7428L11.574 6.79149L11.5788 10.3731L11.8691 10.7428Z" stroke="black" stroke-width="1e-05"/>
<path d="M12.854 10.5672L12.2115 6.88853L12.5637 10.1974L12.854 10.5672Z" stroke="black" stroke-width="1e-05"/>
<path d="M14.2432 9.4765L13.8959 9.74916L12.8491 6.98558L14.2432 9.4765Z" stroke="black" stroke-width="1e-05"/>
<path d="M15.171 9.94325L13.4867 7.08262L14.5906 9.20383L15.171 9.94325Z" stroke="black" stroke-width="1e-05"/>
<path d="M18.4159 9.7861L15.8037 6.45871L18.7632 9.51343L18.4159 9.7861Z" stroke="black" stroke-width="1e-05"/>
<path d="M18.5871 7.85898L15.8608 5.81634L18.2398 8.13164L18.5871 7.85898Z" stroke="black" stroke-width="1e-05"/>
<path d="M18.6442 7.2166L18.354 6.84689L15.9179 5.17397L18.6442 7.2166Z" stroke="black" stroke-width="1e-05"/>
<path d="M18.4681 5.56214L15.975 4.53159L18.4111 6.20452L18.4681 5.56214Z" stroke="black" stroke-width="1e-05"/>
<path d="M19.453 5.38652L19.5101 4.74415L16.032 3.88922L19.453 5.38652Z" stroke="black" stroke-width="1e-05"/>
<path d="M19.8574 4.47148L19.9145 3.82911L16.0891 3.24684L19.8574 4.47148Z" stroke="black" stroke-width="1e-05"/>
<path d="M22.9129 4.46306L15.6094 3.02586L22.6226 4.09335L22.9129 4.46306Z" fill="url(#paint41_linear_28_66)"/>
<path d="M15.9568 2.7532L21.7519 2.98422L21.1714 2.24481L15.9568 2.7532Z" fill="url(#paint42_linear_28_66)"/>
<path d="M22.9129 4.46306L15.6094 3.02586L22.6226 4.09335L22.9129 4.46306Z" stroke="black" stroke-width="1e-05"/>
<path d="M15.9568 2.7532L21.7519 2.98422L21.1714 2.24481L15.9568 2.7532Z" stroke="black" stroke-width="1e-05"/>
<path d="M40.7821 10.6908L40.9631 5.45473L41.4197 10.5937L40.7821 10.6908Z" fill="url(#paint43_linear_28_66)"/>
<path d="M41.767 10.8664L42.0572 10.4967L41.3675 6.36977L41.767 10.8664Z" fill="url(#paint44_linear_28_66)"/>
<path d="M41.7719 7.2848L42.4616 11.4117L42.7519 11.042L41.7719 7.2848Z" fill="url(#paint45_linear_28_66)"/>
<path d="M40.7821 10.6908L40.9631 5.45473L41.4197 10.5937L40.7821 10.6908Z" stroke="black" stroke-width="1e-05"/>
<path d="M41.767 10.8664L42.0572 10.4967L41.3675 6.36977L41.767 10.8664Z" stroke="black" stroke-width="1e-05"/>
<path d="M41.7719 7.2848L42.4616 11.4117L42.7519 11.042L41.7719 7.2848Z" stroke="black" stroke-width="1e-05"/>
<path d="M40.9145 10.1971L41.2096 6.24583L41.2047 9.82741L40.9145 10.1971Z" fill="url(#paint46_linear_28_66)"/>
<path d="M39.9296 10.0215L40.572 6.34288L40.2198 9.65179L39.9296 10.0215Z" fill="url(#paint47_linear_28_66)"/>
<path d="M38.5403 8.93084L38.8876 9.20351L39.9345 6.43992L38.5403 8.93084Z" fill="url(#paint48_linear_28_66)"/>
<path d="M37.6125 9.3976L39.2969 6.53697L38.193 8.65818L37.6125 9.3976Z" fill="url(#paint49_linear_28_66)"/>
<path d="M34.3676 9.24044L36.9798 5.91306L34.0203 8.96778L34.3676 9.24044Z" fill="url(#paint50_linear_28_66)"/>
<path d="M34.1964 7.31332L36.9228 5.27069L34.5437 7.58599L34.1964 7.31332Z" fill="url(#paint51_linear_28_66)"/>
<path d="M34.1393 6.67095L34.4296 6.30124L36.8657 4.62831L34.1393 6.67095Z" fill="url(#paint52_linear_28_66)"/>
<path d="M34.3154 5.01649L36.8086 3.98594L34.3725 5.65886L34.3154 5.01649Z" fill="url(#paint53_linear_28_66)"/>
<path d="M33.3306 4.84087L33.2735 4.1985L36.7515 3.34356L33.3306 4.84087Z" fill="url(#paint54_linear_28_66)"/>
<path d="M32.9262 3.92583L32.8691 3.28346L36.6945 2.70119L32.9262 3.92583Z" fill="url(#paint55_linear_28_66)"/>
<path d="M40.9145 10.1971L41.2096 6.24583L41.2047 9.82741L40.9145 10.1971Z" stroke="black" stroke-width="1e-05"/>
<path d="M39.9296 10.0215L40.572 6.34288L40.2198 9.65179L39.9296 10.0215Z" stroke="black" stroke-width="1e-05"/>
<path d="M38.5403 8.93084L38.8876 9.20351L39.9345 6.43992L38.5403 8.93084Z" stroke="black" stroke-width="1e-05"/>
<path d="M37.6125 9.3976L39.2969 6.53697L38.193 8.65818L37.6125 9.3976Z" stroke="black" stroke-width="1e-05"/>
<path d="M34.3676 9.24044L36.9798 5.91306L34.0203 8.96778L34.3676 9.24044Z" stroke="black" stroke-width="1e-05"/>
<path d="M34.1964 7.31332L36.9228 5.27069L34.5437 7.58599L34.1964 7.31332Z" stroke="black" stroke-width="1e-05"/>
<path d="M34.1393 6.67095L34.4296 6.30124L36.8657 4.62831L34.1393 6.67095Z" stroke="black" stroke-width="1e-05"/>
<path d="M34.3154 5.01649L36.8086 3.98594L34.3725 5.65886L34.3154 5.01649Z" stroke="black" stroke-width="1e-05"/>
<path d="M33.3306 4.84087L33.2735 4.1985L36.7515 3.34356L33.3306 4.84087Z" stroke="black" stroke-width="1e-05"/>
<path d="M32.9262 3.92583L32.8691 3.28346L36.6945 2.70119L32.9262 3.92583Z" stroke="black" stroke-width="1e-05"/>
<path d="M29.8707 3.91741L37.1741 2.48021L30.161 3.5477L29.8707 3.91741Z" fill="url(#paint56_linear_28_66)"/>
<path d="M36.8268 2.20754L31.0317 2.43857L31.6122 1.69915L36.8268 2.20754Z" fill="url(#paint57_linear_28_66)"/>
<path d="M29.8707 3.91741L37.1741 2.48021L30.161 3.5477L29.8707 3.91741Z" stroke="black" stroke-width="1e-05"/>
<path d="M36.8268 2.20754L31.0317 2.43857L31.6122 1.69915L36.8268 2.20754Z" stroke="black" stroke-width="1e-05"/>
</g>
</g>
<defs>
<filter id="filter0_d_28_66" x="0.2" y="0.199695" width="53.6" height="52.6003" filterUnits="userSpaceOnUse" color-interpolation-filters="sRGB">
<feFlood flood-opacity="0" result="BackgroundImageFix"/>
<feColorMatrix in="SourceAlpha" type="matrix" values="0 0 0 0 0 0 0 0 0 0 0 0 0 0 0 0 0 0 127 0" result="hardAlpha"/>
<feOffset dy="4"/>
<feGaussianBlur stdDeviation="2.4"/>
<feComposite in2="hardAlpha" operator="out"/>
<feColorMatrix type="matrix" values="0 0 0 0 0 0 0 0 0 0 0 0 0 0 0 0 0 0 0.25 0"/>
<feBlend mode="normal" in2="BackgroundImageFix" result="effect1_dropShadow_28_66"/>
<feBlend mode="normal" in="SourceGraphic" in2="effect1_dropShadow_28_66" result="shape"/>
</filter>
<linearGradient id="paint0_linear_28_66" x1="27.0745" y1="44" x2="26.5" y2="1.4997" gradientUnits="userSpaceOnUse">
<stop stop-color="#05295F"/>
<stop offset="0.0574547" stop-color="#4AB3CE"/>
<stop offset="0.203823" stop-color="#5CD4EA"/>
<stop offset="0.237678" stop-color="#FEFEFE"/>
<stop offset="0.335683" stop-color="#4DB8D3"/>
<stop offset="0.412519" stop-color="#0043D3"/>
<stop offset="0.527021" stop-color="#ED6649"/>
<stop offset="0.669912" stop-color="#D56558"/>
<stop offset="0.802785" stop-color="#345BBF"/>
<stop offset="0.928213" stop-color="#FFFCFC"/>
</linearGradient>
<linearGradient id="paint1_linear_28_66" x1="39" y1="33.4997" x2="39" y2="17.9997" gradientUnits="userSpaceOnUse">
<stop stop-color="#DE3A3A"/>
<stop offset="1" stop-color="#FFDD1E"/>
</linearGradient>
<linearGradient id="paint2_linear_28_66" x1="39" y1="33.4997" x2="39" y2="17.9997" gradientUnits="userSpaceOnUse">
<stop stop-color="#DE3A3A"/>
<stop offset="1" stop-color="#FFDD1E"/>
</linearGradient>
<linearGradient id="paint3_linear_28_66" x1="41" y1="33.9997" x2="41" y2="18.4997" gradientUnits="userSpaceOnUse">
<stop stop-color="#50BCFF"/>
<stop offset="0.622754" stop-color="#348DDF"/>
<stop offset="1" stop-color="#2371CB"/>
</linearGradient>
<linearGradient id="paint4_linear_28_66" x1="42.4329" y1="34.4997" x2="42.4329" y2="32.4997" gradientUnits="userSpaceOnUse">
<stop stop-color="#F80E0E"/>
<stop offset="1" stop-color="#FADE42"/>
</linearGradient>
<linearGradient id="paint5_linear_28_66" x1="42.4329" y1="34.4997" x2="42.4329" y2="32.4997" gradientUnits="userSpaceOnUse">
<stop stop-color="#F80E0E"/>
<stop offset="1" stop-color="#FADE42"/>
</linearGradient>
<linearGradient id="paint6_linear_28_66" x1="45.2852" y1="31.9997" x2="45.2852" y2="19.4997" gradientUnits="userSpaceOnUse">
<stop stop-color="#020000"/>
<stop offset="1" stop-color="#FFFBFB"/>
</linearGradient>
<linearGradient id="paint7_linear_28_66" x1="13" y1="32.9997" x2="13" y2="19.9997" gradientUnits="userSpaceOnUse">
<stop stop-color="#DE3A3A"/>
<stop offset="1" stop-color="#FFDD1E"/>
</linearGradient>
<linearGradient id="paint8_linear_28_66" x1="13" y1="32.9997" x2="13" y2="19.9997" gradientUnits="userSpaceOnUse">
<stop stop-color="#DE3A3A"/>
<stop offset="1" stop-color="#FFDD1E"/>
</linearGradient>
<linearGradient id="paint9_linear_28_66" x1="11.5" y1="33.9997" x2="11.5" y2="19.9997" gradientUnits="userSpaceOnUse">
<stop stop-color="#50BCFF"/>
<stop offset="0.622754" stop-color="#348DDF"/>
<stop offset="1" stop-color="#2371CB"/>
</linearGradient>
<linearGradient id="paint10_linear_28_66" x1="10" y1="33.9997" x2="10" y2="31.9997" gradientUnits="userSpaceOnUse">
<stop stop-color="#F80E0E"/>
<stop offset="1" stop-color="#FADE42"/>
</linearGradient>
<linearGradient id="paint11_linear_28_66" x1="10" y1="33.9997" x2="10" y2="31.9997" gradientUnits="userSpaceOnUse">
<stop stop-color="#F80E0E"/>
<stop offset="1" stop-color="#FADE42"/>
</linearGradient>
<linearGradient id="paint12_linear_28_66" x1="8" y1="31.9997" x2="8" y2="20.9997" gradientUnits="userSpaceOnUse">
<stop stop-color="#020000"/>
<stop offset="1" stop-color="#FFFBFB"/>
</linearGradient>
<linearGradient id="paint13_linear_28_66" x1="33.25" y1="42.4997" x2="33.25" y2="37.9997" gradientUnits="userSpaceOnUse">
<stop stop-color="#FFED63"/>
<stop offset="1" stop-color="#ED6649"/>
</linearGradient>
<linearGradient id="paint14_linear_28_66" x1="33.25" y1="42.4997" x2="33.25" y2="37.9997" gradientUnits="userSpaceOnUse">
<stop stop-color="#FFED63"/>
<stop offset="1" stop-color="#ED6649"/>
</linearGradient>
<linearGradient id="paint15_linear_28_66" x1="33.25" y1="42.4997" x2="33.25" y2="37.9997" gradientUnits="userSpaceOnUse">
<stop stop-color="#FFED63"/>
<stop offset="1" stop-color="#ED6649"/>
</linearGradient>
<linearGradient id="paint16_linear_28_66" x1="26.5" y1="41.9997" x2="26.5" y2="34.9997" gradientUnits="userSpaceOnUse">
<stop stop-color="#8BECFD"/>
<stop offset="1" stop-color="#004AD2"/>
</linearGradient>
<linearGradient id="paint17_linear_28_66" x1="26.5" y1="41.9997" x2="26.5" y2="34.9997" gradientUnits="userSpaceOnUse">
<stop stop-color="#8BECFD"/>
<stop offset="1" stop-color="#004AD2"/>
</linearGradient>
<linearGradient id="paint18_linear_28_66" x1="26.5" y1="41.9997" x2="26.5" y2="34.9997" gradientUnits="userSpaceOnUse">
<stop stop-color="#8BECFD"/>
<stop offset="1" stop-color="#004AD2"/>
</linearGradient>
<linearGradient id="paint19_linear_28_66" x1="26.5" y1="41.9997" x2="26.5" y2="34.9997" gradientUnits="userSpaceOnUse">
<stop stop-color="#8BECFD"/>
<stop offset="1" stop-color="#004AD2"/>
</linearGradient>
<linearGradient id="paint20_linear_28_66" x1="26.5" y1="41.9997" x2="26.5" y2="34.9997" gradientUnits="userSpaceOnUse">
<stop stop-color="#8BECFD"/>
<stop offset="1" stop-color="#004AD2"/>
</linearGradient>
<linearGradient id="paint21_linear_28_66" x1="26.5" y1="41.9997" x2="26.5" y2="34.9997" gradientUnits="userSpaceOnUse">
<stop stop-color="#8BECFD"/>
<stop offset="1" stop-color="#004AD2"/>
</linearGradient>
<linearGradient id="paint22_linear_28_66" x1="26.5" y1="41.9997" x2="26.5" y2="34.9997" gradientUnits="userSpaceOnUse">
<stop stop-color="#8BECFD"/>
<stop offset="1" stop-color="#004AD2"/>
</linearGradient>
<linearGradient id="paint23_linear_28_66" x1="26.5" y1="41.9997" x2="26.5" y2="34.9997" gradientUnits="userSpaceOnUse">
<stop stop-color="#8BECFD"/>
<stop offset="1" stop-color="#004AD2"/>
</linearGradient>
<linearGradient id="paint24_linear_28_66" x1="26.5" y1="41.9997" x2="26.5" y2="34.9997" gradientUnits="userSpaceOnUse">
<stop stop-color="#8BECFD"/>
<stop offset="1" stop-color="#004AD2"/>
</linearGradient>
<linearGradient id="paint25_linear_28_66" x1="26.5" y1="41.9997" x2="26.5" y2="34.9997" gradientUnits="userSpaceOnUse">
<stop stop-color="#8BECFD"/>
<stop offset="1" stop-color="#004AD2"/>
</linearGradient>
<linearGradient id="paint26_linear_28_66" x1="20.75" y1="42.4997" x2="20.75" y2="36.4997" gradientUnits="userSpaceOnUse">
<stop offset="0.33" stop-color="#FBFB46"/>
<stop offset="1" stop-color="#ED6649"/>
</linearGradient>
<linearGradient id="paint27_linear_28_66" x1="20.75" y1="42.4997" x2="20.75" y2="36.4997" gradientUnits="userSpaceOnUse">
<stop offset="0.33" stop-color="#FBFB46"/>
<stop offset="1" stop-color="#ED6649"/>
</linearGradient>
<linearGradient id="paint28_linear_28_66" x1="9.91025" y1="7.50004" x2="12.5224" y2="10.8274" gradientUnits="userSpaceOnUse">
<stop stop-color="#FFED63"/>
<stop offset="1" stop-color="#ED6649"/>
</linearGradient>
<linearGradient id="paint29_linear_28_66" x1="9.91025" y1="7.50004" x2="12.5224" y2="10.8274" gradientUnits="userSpaceOnUse">
<stop stop-color="#FFED63"/>
<stop offset="1" stop-color="#ED6649"/>
</linearGradient>
<linearGradient id="paint30_linear_28_66" x1="9.91025" y1="7.50004" x2="12.5224" y2="10.8274" gradientUnits="userSpaceOnUse">
<stop stop-color="#FFED63"/>
<stop offset="1" stop-color="#ED6649"/>
</linearGradient>
<linearGradient id="paint31_linear_28_66" x1="14.0052" y1="4.88283" x2="18.0686" y2="10.0588" gradientUnits="userSpaceOnUse">
<stop stop-color="#8BECFD"/>
<stop offset="1" stop-color="#004AD2"/>
</linearGradient>
<linearGradient id="paint32_linear_28_66" x1="14.0052" y1="4.88283" x2="18.0686" y2="10.0588" gradientUnits="userSpaceOnUse">
<stop stop-color="#8BECFD"/>
<stop offset="1" stop-color="#004AD2"/>
</linearGradient>
<linearGradient id="paint33_linear_28_66" x1="14.0052" y1="4.88283" x2="18.0686" y2="10.0588" gradientUnits="userSpaceOnUse">
<stop stop-color="#8BECFD"/>
<stop offset="1" stop-color="#004AD2"/>
</linearGradient>
<linearGradient id="paint34_linear_28_66" x1="14.0052" y1="4.88283" x2="18.0686" y2="10.0588" gradientUnits="userSpaceOnUse">
<stop stop-color="#8BECFD"/>
<stop offset="1" stop-color="#004AD2"/>
</linearGradient>
<linearGradient id="paint35_linear_28_66" x1="14.0052" y1="4.88283" x2="18.0686" y2="10.0588" gradientUnits="userSpaceOnUse">
<stop stop-color="#8BECFD"/>
<stop offset="1" stop-color="#004AD2"/>
</linearGradient>
<linearGradient id="paint36_linear_28_66" x1="14.0052" y1="4.88283" x2="18.0686" y2="10.0588" gradientUnits="userSpaceOnUse">
<stop stop-color="#8BECFD"/>
<stop offset="1" stop-color="#004AD2"/>
</linearGradient>
<linearGradient id="paint37_linear_28_66" x1="14.0052" y1="4.88283" x2="18.0686" y2="10.0588" gradientUnits="userSpaceOnUse">
<stop stop-color="#8BECFD"/>
<stop offset="1" stop-color="#004AD2"/>
</linearGradient>
<linearGradient id="paint38_linear_28_66" x1="14.0052" y1="4.88283" x2="18.0686" y2="10.0588" gradientUnits="userSpaceOnUse">
<stop stop-color="#8BECFD"/>
<stop offset="1" stop-color="#004AD2"/>
</linearGradient>
<linearGradient id="paint39_linear_28_66" x1="14.0052" y1="4.88283" x2="18.0686" y2="10.0588" gradientUnits="userSpaceOnUse">
<stop stop-color="#8BECFD"/>
<stop offset="1" stop-color="#004AD2"/>
</linearGradient>
<linearGradient id="paint40_linear_28_66" x1="14.0052" y1="4.88283" x2="18.0686" y2="10.0588" gradientUnits="userSpaceOnUse">
<stop stop-color="#8BECFD"/>
<stop offset="1" stop-color="#004AD2"/>
</linearGradient>
<linearGradient id="paint41_linear_28_66" x1="17.5197" y1="1.52621" x2="21.0026" y2="5.96272" gradientUnits="userSpaceOnUse">
<stop offset="0.33" stop-color="#FBFB46"/>
<stop offset="1" stop-color="#ED6649"/>
</linearGradient>
<linearGradient id="paint42_linear_28_66" x1="17.5197" y1="1.52621" x2="21.0026" y2="5.96272" gradientUnits="userSpaceOnUse">
<stop offset="0.33" stop-color="#FBFB46"/>
<stop offset="1" stop-color="#ED6649"/>
</linearGradient>
<linearGradient id="paint43_linear_28_66" x1="42.8733" y1="6.95438" x2="40.2611" y2="10.2818" gradientUnits="userSpaceOnUse">
<stop stop-color="#FFED63"/>
<stop offset="1" stop-color="#ED6649"/>
</linearGradient>
<linearGradient id="paint44_linear_28_66" x1="42.8733" y1="6.95438" x2="40.2611" y2="10.2818" gradientUnits="userSpaceOnUse">
<stop stop-color="#FFED63"/>
<stop offset="1" stop-color="#ED6649"/>
</linearGradient>
<linearGradient id="paint45_linear_28_66" x1="42.8733" y1="6.95438" x2="40.2611" y2="10.2818" gradientUnits="userSpaceOnUse">
<stop stop-color="#FFED63"/>
<stop offset="1" stop-color="#ED6649"/>
</linearGradient>
<linearGradient id="paint46_linear_28_66" x1="38.7784" y1="4.33718" x2="34.715" y2="9.51311" gradientUnits="userSpaceOnUse">
<stop stop-color="#8BECFD"/>
<stop offset="1" stop-color="#004AD2"/>
</linearGradient>
<linearGradient id="paint47_linear_28_66" x1="38.7784" y1="4.33718" x2="34.715" y2="9.51311" gradientUnits="userSpaceOnUse">
<stop stop-color="#8BECFD"/>
<stop offset="1" stop-color="#004AD2"/>
</linearGradient>
<linearGradient id="paint48_linear_28_66" x1="38.7784" y1="4.33718" x2="34.715" y2="9.51311" gradientUnits="userSpaceOnUse">
<stop stop-color="#8BECFD"/>
<stop offset="1" stop-color="#004AD2"/>
</linearGradient>
<linearGradient id="paint49_linear_28_66" x1="38.7784" y1="4.33718" x2="34.715" y2="9.51311" gradientUnits="userSpaceOnUse">
<stop stop-color="#8BECFD"/>
<stop offset="1" stop-color="#004AD2"/>
</linearGradient>
<linearGradient id="paint50_linear_28_66" x1="38.7784" y1="4.33718" x2="34.715" y2="9.51311" gradientUnits="userSpaceOnUse">
<stop stop-color="#8BECFD"/>
<stop offset="1" stop-color="#004AD2"/>
</linearGradient>
<linearGradient id="paint51_linear_28_66" x1="38.7784" y1="4.33718" x2="34.715" y2="9.51311" gradientUnits="userSpaceOnUse">
<stop stop-color="#8BECFD"/>
<stop offset="1" stop-color="#004AD2"/>
</linearGradient>
<linearGradient id="paint52_linear_28_66" x1="38.7784" y1="4.33718" x2="34.715" y2="9.51311" gradientUnits="userSpaceOnUse">
<stop stop-color="#8BECFD"/>
<stop offset="1" stop-color="#004AD2"/>
</linearGradient>
<linearGradient id="paint53_linear_28_66" x1="38.7784" y1="4.33718" x2="34.715" y2="9.51311" gradientUnits="userSpaceOnUse">
<stop stop-color="#8BECFD"/>
<stop offset="1" stop-color="#004AD2"/>
</linearGradient>
<linearGradient id="paint54_linear_28_66" x1="38.7784" y1="4.33718" x2="34.715" y2="9.51311" gradientUnits="userSpaceOnUse">
<stop stop-color="#8BECFD"/>
<stop offset="1" stop-color="#004AD2"/>
</linearGradient>
<linearGradient id="paint55_linear_28_66" x1="38.7784" y1="4.33718" x2="34.715" y2="9.51311" gradientUnits="userSpaceOnUse">
<stop stop-color="#8BECFD"/>
<stop offset="1" stop-color="#004AD2"/>
</linearGradient>
<linearGradient id="paint56_linear_28_66" x1="35.2639" y1="0.980552" x2="31.781" y2="5.41706" gradientUnits="userSpaceOnUse">
<stop offset="0.33" stop-color="#FBFB46"/>
<stop offset="1" stop-color="#ED6649"/>
</linearGradient>
<linearGradient id="paint57_linear_28_66" x1="35.2639" y1="0.980552" x2="31.781" y2="5.41706" gradientUnits="userSpaceOnUse">
<stop offset="0.33" stop-color="#FBFB46"/>
<stop offset="1" stop-color="#ED6649"/>
</linearGradient>
</defs>
</svg>
