<svg width="65" height="135" viewBox="0 0 65 135" fill="none" xmlns="http://www.w3.org/2000/svg">
<path d="M12.1652 65.4679C12.5885 63.8891 13.0074 63.2147 14.1462 62.4621L14.2362 62.2617C12.5549 60.8159 11.4967 60.2313 9.37393 59.6567C9.27472 61.194 8.98786 62.0072 8.0233 63.3638C9.96851 63.8772 10.8964 64.318 12.1652 65.4679Z" fill="#FFFDFD" stroke="#FFFDFD" stroke-width="0.252694"/>
<path d="M12.5254 68.7742C11.6195 68.1199 11.5748 67.4149 12.1652 65.6682C10.8732 64.3901 9.97034 63.921 8.02327 63.5642L0.999987 71.9804H1.45019V72.5816C1.85877 73.0703 2.07641 73.1562 2.44066 72.8822C2.99075 72.2986 3.14027 71.9464 3.16099 71.2791H4.06142C6.05319 69.4849 6.77144 68.6785 8.47348 67.6721H10.1843C10.4112 68.4309 10.6771 68.787 11.4449 69.2752C12.3959 69.6078 12.6124 69.4787 12.5254 68.7742Z" fill="#C8A286" stroke="#C8A286" stroke-width="0.252694"/>
<path d="M47.4616 1.04364C51.9381 0.766548 53.8426 1.75549 56.1957 5.55234C56.3583 6.14374 56.4632 6.25446 56.2858 6.75466C56.2858 6.75466 56.1073 7.2788 53.8546 6.45407C51.602 5.62935 51.5256 6.26107 50.1629 6.45407C49.7761 6.96274 50.4597 7.44832 50.0729 7.95698L45.3006 7.75659C43.9016 9.21863 43.326 10.2654 42.6894 12.5659C42.1981 8.71614 43.2297 4.95118 43.2297 4.95118C43.2297 4.95118 44.5721 2.16285 47.4616 1.04364Z" fill="black" stroke="black" stroke-width="0.252694"/>
<path d="M56.4659 10.3616L56.2859 7.15544C54.6341 6.82936 53.5842 6.75548 51.3335 6.95506L50.9734 8.65834L49.6227 9.45989L48.9924 12.5659L47.1016 12.4657L46.4713 10.3616C45.4053 9.73427 44.9168 9.76847 44.3103 10.7624C43.7777 11.0635 43.7253 11.6001 44.0401 13.167L43.4098 14.7701L42.5995 14.3694L40.3484 17.8761C41.2598 21.971 42.5641 23.9082 45.931 26.8935L47.2816 24.6892C47.8406 24.1225 48.0258 23.7526 48.092 22.986L49.1725 21.3829C49.8546 22.4037 50.4493 22.7268 51.8738 22.8858C52.2589 22.9296 52.4757 22.5625 52.8643 20.9821C53.2767 21.0936 53.4428 21.0616 53.5846 20.7817C53.9702 20.2061 54.0375 19.8052 53.9448 18.9782C54.1132 17.8413 54.4664 17.4469 55.5655 17.1748C55.2068 16.3634 55.2041 16.0339 55.5655 15.6719C56.048 15.6466 56.1766 15.4836 56.1958 14.9705C55.6403 13.6791 55.5338 13.0329 55.5655 11.9647L56.4659 10.3616Z" fill="#C8A286"/>
<path d="M52.2339 6.1535C53.1703 6.31094 53.6827 6.46539 54.575 6.85486L51.4235 6.95505L50.9733 8.55814L49.6227 9.45988L48.9924 12.4657H47.1015L46.5613 10.3616C45.3872 9.60806 44.9065 9.70929 44.3102 10.6622L43.77 11.6641L43.95 13.167L43.3197 14.6699L42.7795 14.3693V12.4657C43.38 10.3799 43.9232 9.36362 45.3007 7.85679L50.1629 8.05717L50.253 7.25563V6.55428L52.2339 6.1535Z" fill="url(#paint0_linear_52_81)" stroke="#C8A286" stroke-width="0.252694"/>
<path d="M38.6376 18.9782L40.5285 17.2749C40.562 20.6677 41.91 22.5738 45.5708 26.6931C46.1582 26.8588 46.1167 26.9097 46.2912 26.4927C46.2452 26.0759 46.5036 25.9868 46.7414 25.6912L47.1016 26.0919L47.0115 27.695C46.8739 28.0291 46.7613 28.2063 46.4713 28.4966C46.066 28.6875 45.7868 28.6812 45.2107 28.4966C43.5036 25.9709 42.5582 24.7605 40.8887 22.8858L37.7372 26.2923L37.287 25.9918L40.6185 22.2846L40.2584 21.7836L36.9268 25.6912L36.3866 25.1902L39.9882 20.9821L39.7181 20.5813L35.9363 24.7894C35.6662 24.6224 35.18 24.2484 35.3961 24.0881C35.6122 23.9278 37.9473 21.2827 39.0878 19.9802L38.6376 18.9782Z" fill="white" stroke="white" stroke-width="0.252694"/>
<path d="M26.4819 29.7991C29.6843 23.7927 32.2939 21.3639 38.6376 18.9782L38.9978 20.0804L35.3961 24.2885L35.9363 24.7894L39.6281 20.6815L39.8982 21.0823L36.3866 25.1902L36.9268 25.6912L40.2584 21.8838L40.5285 22.2846L37.1969 25.9918L37.7372 26.3925L40.9787 22.986L45.1206 28.5968L47.1016 27.695L47.1916 25.9918L46.7414 25.591L47.4617 24.5891L50.3431 29.7991L48.1821 34.9089V39.7182L46.7414 43.7259L44.5804 51.9418V60.4582C45.2541 60.8297 45.5039 61.4282 45.6609 63.3638C46.1907 64.6132 46.2972 65.2102 46.1111 66.069C43.7061 67.2866 41.5878 67.372 36.8368 66.7704C33.5399 66.2048 31.6149 65.4087 28.0126 62.963C26.608 64.1821 26.0199 64.9829 25.5815 66.7704H22.7902L23.6006 61.4601L24.1408 57.9534L25.3114 55.6489L24.9512 47.6335C20.5879 52.8766 18.2407 56.0548 14.2362 62.1615C12.4909 60.5399 11.4464 59.9702 9.37393 59.5565C10.1531 57.3074 10.8577 56.2432 12.5254 54.647L20.0889 42.9244L24.501 36.512C26.0119 33.2008 26.5328 31.6495 26.4819 29.7991Z" fill="#C72334" stroke="#C72334" stroke-width="0.252694"/>
<path d="M44.0401 33.8068V34.5082V34.8088L43.5899 34.9089V36.0111L43.0496 36.6122H42.0592C41.7796 35.7499 41.5131 35.5343 40.8886 35.5101V34.7086L40.6185 34.5082V33.907L40.8886 33.8068L40.7986 32.5043L41.789 31.2018L42.5994 31.1016C42.5094 31.2018 43.1712 32.1746 43.77 32.1035V33.8068H44.0401Z" fill="#ED6649"/>
<path d="M42.0592 33.0053H42.5094L43.1397 33.6064V35.1093L42.8696 35.4099H42.0592L41.7891 35.2095V33.4061L42.0592 33.0053Z" fill="#EEFC2A"/>
<path d="M41.2488 34.5082V34.0072H40.8887V34.5082H41.2488Z" fill="#EEFC2A"/>
<path d="M43.77 34.5082V34.0072L43.4099 33.907V34.5082H43.77Z" fill="#EEFC2A"/>
<path d="M42.0592 33.0053H42.5094L43.1397 33.6064V35.1093L42.8696 35.4099H42.0592L41.7891 35.2095V33.4061L42.0592 33.0053Z" stroke="#EEFC2A" stroke-width="0.252694"/>
<path d="M41.2488 34.5082V34.0072H40.8887V34.5082H41.2488Z" stroke="#EEFC2A" stroke-width="0.252694"/>
<path d="M43.77 34.5082V34.0072L43.4099 33.907V34.5082H43.77Z" stroke="#EEFC2A" stroke-width="0.252694"/>
<path d="M47.0115 65.9688H46.2011C43.164 67.5628 40.6163 67.6352 34.9458 66.6702L27.9226 63.1634C26.6531 64.1396 26.1531 64.9043 25.6715 66.6702H22.8802C23.3325 70.9961 22.9936 74.1139 21.1694 81.098L19.5486 88.3119L21.1694 85.6067L22.8802 82.4005L30.5338 87.8109L29.6334 90.3158H30.8039L32.7848 89.2136L36.0263 81.098C37.5841 83.6108 38.6201 85.5778 40.7085 89.915L44.2202 87.8109L43.3198 86.5084L43.5899 86.1077L50.8833 85.1057C53.2865 84.4863 54.2767 83.8685 55.2953 82.2001V80.9978C53.0126 74.5802 51.2226 71.2751 47.0115 65.9688Z" fill="#D9D9D9" stroke="#FFFDFD" stroke-width="0.252694"/>
<path d="M30.2637 78.8937L30.894 79.7955L30.984 79.8957V76.4891L30.7139 76.3889L30.6238 73.9843V73.0825L31.1641 73.1827L31.9745 73.4833L32.7849 73.6837L33.145 73.4833V73.0825H32.3346L32.2446 72.8822L31.3442 72.782V72.5816H30.894L30.6238 72.1808L29.6334 72.0806V72.5816L29.9035 72.6818V75.0864H30.2637V77.2907V78.8937Z" fill="black" stroke="black" stroke-width="0.252694"/>
<path d="M26.662 79.8957C27.0942 80.056 29.2432 69.9432 30.2637 64.8667L29.7234 64.4659L29.4533 64.0652L28.733 63.6644L24.9512 78.9939L25.4914 79.3947L29.4533 64.0652L29.7234 64.4659C28.5229 69.5424 26.2298 79.7354 26.662 79.8957Z" fill="#920D1B"/>
<path d="M24.4109 79.3947L28.2827 63.3638L27.9226 63.1634L23.9607 79.3947H24.4109Z" fill="#920D1B"/>
<path d="M30.0836 80.7974L29.7234 80.2965L28.5529 81.6992H29.1832L30.0836 80.7974Z" fill="#920D1B"/>
<path d="M30.0836 82.0999L30.3537 81.1982H30.2637L29.5433 81.8995L30.0836 82.0999Z" fill="#920D1B"/>
<path d="M30.7139 82.4005V81.8995L30.4438 81.7994L30.3537 82.4005H30.7139Z" fill="#920D1B"/>
<path d="M30.894 83.4024V82.8013H30.984L30.0836 82.6009L29.1832 82.2001L28.0126 81.8995L27.8325 82.4005L29.0031 83.0017L29.9035 83.4024H30.894Z" fill="#920D1B"/>
<path d="M29.7234 64.4659C28.5229 69.5424 26.2298 79.7354 26.662 79.8957C27.0942 80.056 29.2432 69.9432 30.2637 64.8667L29.7234 64.4659ZM29.7234 64.4659L29.4533 64.0652M29.4533 64.0652L25.4914 79.3947L24.9512 78.9939L28.733 63.6644L29.4533 64.0652ZM28.2827 63.3638L24.4109 79.3947H23.9607L27.9226 63.1634L28.2827 63.3638ZM29.7234 80.2965L30.0836 80.7974L29.1832 81.6992H28.5529L29.7234 80.2965ZM30.3537 81.1982L30.0836 82.0999L29.5433 81.8995L30.2637 81.1982H30.3537ZM30.7139 81.8995V82.4005H30.3537L30.4438 81.7994L30.7139 81.8995ZM30.894 82.8013V83.4024H29.9035L29.0031 83.0017L27.8325 82.4005L28.0126 81.8995L29.1832 82.2001L30.0836 82.6009L30.984 82.8013H30.894Z" stroke="#920D1B" stroke-width="0.252694"/>
<path d="M29.5433 90.416L30.4437 87.9111V87.7108L22.8802 82.7011L19.6387 88.4121L17.2976 96.7281L22.8802 102.038L24.501 99.6337L25.6715 96.7281L29.5433 90.416Z" fill="#C8A286"/>
<path d="M48.7223 92.52L43.3198 86.3081C50.29 85.4873 53.258 84.8378 55.2954 82.3003C55.9668 85.0171 56.6846 86.3391 58.4468 88.4121V91.3177L57.0062 94.5239L55.5655 95.8264H52.9543L49.2625 93.9227L48.7223 92.52Z" fill="#C8A286"/>
<path d="M29.5433 90.416L30.4437 87.9111V87.7108L22.8802 82.7011L19.6387 88.4121L17.2976 96.7281L22.8802 102.038L24.501 99.6337L25.6715 96.7281L29.5433 90.416Z" stroke="#C8A286" stroke-width="0.252694"/>
<path d="M48.7223 92.52L43.3198 86.3081C50.29 85.4873 53.258 84.8378 55.2954 82.3003C55.9668 85.0171 56.6846 86.3391 58.4468 88.4121V91.3177L57.0062 94.5239L55.5655 95.8264H52.9543L49.2625 93.9227L48.7223 92.52Z" stroke="#C8A286" stroke-width="0.252694"/>
<path d="M17.2076 96.5278C19.1737 98.6521 20.3772 99.8936 22.7902 102.239L20.269 106.146C19.5862 109.341 18.9693 110.845 17.5677 113.16L16.037 115.765L12.6154 121.877L11.805 123.38L11.5349 125.584C10.2532 124.874 9.08257 124.609 6.49255 124.281L7.39297 121.877L10.0042 112.358L10.6345 109.052C11.7954 104.549 12.7832 102.363 15.4067 99.3332L17.2076 96.5278Z" fill="white"/>
<path d="M48.6322 92.8206C52.8121 96.2355 54.7287 96.9161 57.0062 94.8245V96.3274L55.9257 98.231V102.139C55.5881 102.937 55.3749 103.526 54.9352 104.844L54.7551 107.148L54.1248 109.753C53.2641 113.002 53.1246 114.849 53.2244 118.169C51.9968 119.236 50.7217 119.155 47.5517 117.969C47.9817 113.515 47.9664 111.034 47.3717 106.647L47.0115 103.441C46.6839 99.7653 46.8843 97.9439 48.092 95.2252L48.6322 92.8206Z" fill="white"/>
<path d="M17.2076 96.5278C19.1737 98.6521 20.3772 99.8936 22.7902 102.239L20.269 106.146C19.5862 109.341 18.9693 110.845 17.5677 113.16L16.037 115.765L12.6154 121.877L11.805 123.38L11.5349 125.584C10.2532 124.874 9.08257 124.609 6.49255 124.281L7.39297 121.877L10.0042 112.358L10.6345 109.052C11.7954 104.549 12.7832 102.363 15.4067 99.3332L17.2076 96.5278Z" stroke="white" stroke-width="0.252694"/>
<path d="M48.6322 92.8206C52.8121 96.2355 54.7287 96.9161 57.0062 94.8245V96.3274L55.9257 98.231V102.139C55.5881 102.937 55.3749 103.526 54.9352 104.844L54.7551 107.148L54.1248 109.753C53.2641 113.002 53.1246 114.849 53.2244 118.169C51.9968 119.236 50.7217 119.155 47.5517 117.969C47.9817 113.515 47.9664 111.034 47.3717 106.647L47.0115 103.441C46.6839 99.7653 46.8843 97.9439 48.092 95.2252L48.6322 92.8206Z" stroke="white" stroke-width="0.252694"/>
<path d="M22.1599 103.04L22.6101 102.539C19.9271 101.118 18.6109 100.086 16.7574 97.6299L16.3072 98.0307C17.98 100.164 19.2725 101.258 22.1599 103.04Z" fill="#C72334"/>
<path d="M21.3495 103.842L21.7097 103.341C18.9274 101.878 17.6525 100.849 16.037 98.5316L15.6769 98.8322C17.4081 101.311 18.6742 102.382 21.3495 103.842Z" fill="#C72334"/>
<path d="M22.1599 103.04L22.6101 102.539C19.9271 101.118 18.6109 100.086 16.7574 97.6299L16.3072 98.0307C17.98 100.164 19.2725 101.258 22.1599 103.04Z" stroke="#C72334" stroke-width="0.252694"/>
<path d="M21.3495 103.842L21.7097 103.341C18.9274 101.878 17.6525 100.849 16.037 98.5316L15.6769 98.8322C17.4081 101.311 18.6742 102.382 21.3495 103.842Z" stroke="#C72334" stroke-width="0.252694"/>
<path d="M56.9161 96.2272V95.626C53.5519 97.4265 51.7295 96.6849 48.5422 93.6221V94.9247C53.275 97.6544 55.2713 98.187 56.9161 96.2272Z" fill="#DE3A3A" stroke="#DE3A3A" stroke-width="0.252694"/>
<path d="M11.0847 127.588L11.5349 125.684C10.3303 124.917 9.21925 124.618 6.58262 124.281L5.77224 126.285C9.21388 126.121 10.4719 126.359 11.0847 127.588Z" fill="black"/>
<path d="M47.5518 118.069C50.8592 119.315 52.1447 119.386 53.3145 118.27L53.5846 120.474C51.8845 121.48 50.4396 121.287 47.1016 119.773L47.5518 118.069Z" fill="black"/>
<path d="M11.0847 127.588L11.5349 125.684C10.3303 124.917 9.21925 124.618 6.58262 124.281L5.77224 126.285C9.21388 126.121 10.4719 126.359 11.0847 127.588Z" stroke="black" stroke-width="0.252694"/>
<path d="M47.5518 118.069C50.8592 119.315 52.1447 119.386 53.3145 118.27L53.5846 120.474C51.8845 121.48 50.4396 121.287 47.1016 119.773L47.5518 118.069Z" stroke="black" stroke-width="0.252694"/>
<path d="M63.4892 127.988C57.9651 125.923 55.4965 124.435 53.5846 120.474C51.4587 121.664 49.9638 121.451 46.9215 119.973L46.021 122.177C45.5836 123.464 45.4177 124.432 45.3908 126.986C45.6686 127.773 46.024 128.163 46.9215 128.79L47.1016 129.592L47.6418 129.191L48.4522 128.489L48.7223 129.191V129.592L49.0825 130.293L49.9829 129.191C52.7074 128.606 54.0754 128.826 56.1958 130.293L56.556 131.094L57.3664 131.395L58.2668 130.293C61.7888 130.523 63.1291 130.393 63.7593 129.592C64.3896 128.79 63.5947 128.614 63.4892 127.988Z" fill="#B9DD78"/>
<path d="M5.68218 126.486C9.42368 126.199 10.6234 126.498 11.0847 127.888C10.4835 128.84 11.0429 130.309 13.0656 134C11.7654 133.037 10.646 132.874 8.11332 133.098H2.98092C1.90041 133.098 3.52117 129.992 3.52117 129.992L5.68218 126.486Z" fill="#B9DD78"/>
<path d="M63.4892 127.988C57.9651 125.923 55.4965 124.435 53.5846 120.474C51.4587 121.664 49.9638 121.451 46.9215 119.973L46.021 122.177C45.5836 123.464 45.4177 124.432 45.3908 126.986C45.6686 127.773 46.024 128.163 46.9215 128.79L47.1016 129.592L47.6418 129.191L48.4522 128.489L48.7223 129.191V129.592L49.0825 130.293L49.9829 129.191C52.7074 128.606 54.0754 128.826 56.1958 130.293L56.556 131.094L57.3664 131.395L58.2668 130.293C61.7888 130.523 63.1291 130.393 63.7593 129.592C64.3896 128.79 63.5947 128.614 63.4892 127.988Z" stroke="#B9DD78" stroke-width="0.252694"/>
<path d="M5.68218 126.486C9.42368 126.199 10.6234 126.498 11.0847 127.888C10.4835 128.84 11.0429 130.309 13.0656 134C11.7654 133.037 10.646 132.874 8.11332 133.098H2.98092C1.90041 133.098 3.52117 129.992 3.52117 129.992L5.68218 126.486Z" stroke="#B9DD78" stroke-width="0.252694"/>
<defs>
<linearGradient id="paint0_linear_52_81" x1="48.4521" y1="7.45601" x2="48.7308" y2="14.6679" gradientUnits="userSpaceOnUse">
<stop stop-color="#5B5656"/>
<stop offset="1" stop-color="#C8A286"/>
</linearGradient>
</defs>
</svg>
