<svg width="76" height="136" viewBox="0 0 76 136" fill="none" xmlns="http://www.w3.org/2000/svg">
<path d="M14.1147 70.0474C14.6119 71.6381 15.1039 72.3176 16.4415 73.0758L16.5472 73.2777C14.5724 74.7343 13.3294 75.3234 10.836 75.9023C10.7195 74.3534 10.3825 73.5341 9.24954 72.1673C11.5344 71.6501 12.6243 71.2059 14.1147 70.0474Z" fill="#FFFDFD" stroke="#FFFDFD" stroke-width="0.252694"/>
<path d="M14.5377 66.7162C13.4736 67.3754 13.4211 68.0857 14.1147 69.8455C12.5971 71.1333 11.5366 71.6059 9.24956 71.9654L0.999991 63.4859H1.52881V62.8802C2.00872 62.3878 2.26436 62.3013 2.69221 62.5774C3.33835 63.1653 3.51398 63.5202 3.53832 64.1925H4.59595C6.93549 66.0002 7.77916 66.8127 9.77838 67.8266H11.7879C12.0545 67.0621 12.3667 66.7033 13.2686 66.2114C14.3856 65.8763 14.6399 66.0064 14.5377 66.7162Z" fill="#C8A286" stroke="#C8A286" stroke-width="0.252694"/>
<path d="M55.574 134.956C60.832 135.235 63.0691 134.239 65.8331 130.413C66.024 129.818 66.1473 129.706 65.9389 129.202C65.9389 129.202 65.7292 128.674 63.0832 129.505C60.4372 130.336 60.3475 129.699 58.7469 129.505C58.2925 128.992 59.0955 128.503 58.6411 127.991L53.0356 128.193C51.3924 126.72 50.7163 125.665 49.9685 123.347C49.3914 127.226 50.6031 131.019 50.6031 131.019C50.6031 131.019 52.18 133.828 55.574 134.956Z" fill="black" stroke="black" stroke-width="0.252694"/>
<path d="M66.1505 125.568L65.9389 128.798C63.9988 129.127 62.7656 129.201 60.1219 129L59.6989 127.284L58.1124 126.477L57.3721 123.347L55.151 123.448L54.4107 125.568C53.1586 126.2 52.5848 126.166 51.8723 125.164C51.2468 124.861 51.1853 124.32 51.5551 122.741L50.8147 121.126L49.8628 121.53L47.2187 117.997C48.2893 113.871 49.8214 111.92 53.7761 108.912L55.3625 111.133C56.0191 111.704 56.2366 112.076 56.3144 112.849L57.5836 114.464C58.3848 113.435 59.0833 113.11 60.7565 112.95C61.2089 112.906 61.4635 113.275 61.9199 114.868C62.4044 114.755 62.5995 114.788 62.766 115.07C63.2189 115.649 63.298 116.053 63.1891 116.887C63.387 118.032 63.8017 118.429 65.0928 118.704C64.6714 119.521 64.6683 119.853 65.0928 120.218C65.6595 120.243 65.8106 120.408 65.8332 120.924C65.1807 122.226 65.0555 122.877 65.0928 123.953L66.1505 125.568Z" fill="#C8A286"/>
<path d="M61.1795 129.808C62.2794 129.649 62.8813 129.494 63.9294 129.101L60.2277 129L59.6988 127.385L58.1124 126.477L57.372 123.448H55.151L54.5164 125.568C53.1373 126.327 52.5727 126.225 51.8723 125.265L51.2377 124.256L51.4493 122.741L50.7089 121.227L50.0743 121.53V123.448C50.7797 125.55 51.4177 126.574 53.0357 128.092L58.747 127.89L58.8527 128.697V129.404L61.1795 129.808Z" fill="url(#paint0_linear_52_81)" stroke="#C8A286" stroke-width="0.252694"/>
<path d="M45.2092 116.887L47.4302 118.603C47.4697 115.184 49.053 113.264 53.353 109.114C54.0429 108.947 53.9942 108.896 54.1991 109.316C54.1451 109.736 54.4487 109.825 54.7279 110.123L55.151 109.719L55.0452 108.104C54.8835 107.768 54.7513 107.589 54.4107 107.297C53.9347 107.104 53.6067 107.111 52.93 107.297C50.9248 109.841 49.8143 111.061 47.8533 112.95L44.1516 109.518L43.6228 109.82L47.536 113.555L47.113 114.06L43.1997 110.123L42.5651 110.628L46.7957 114.868L46.4784 115.271L42.0363 111.032C41.719 111.2 41.1479 111.577 41.4017 111.738C41.6556 111.9 44.3984 114.565 45.738 115.877L45.2092 116.887Z" fill="white" stroke="white" stroke-width="0.252694"/>
<path d="M30.9311 105.984C34.6926 112.036 37.7578 114.483 45.2092 116.887L45.6323 115.776L41.4017 111.536L42.0363 111.032L46.3726 115.171L46.6899 114.767L42.5651 110.628L43.1997 110.123L47.113 113.959L47.4302 113.555L43.517 109.82L44.1516 109.417L47.9591 112.849L52.8242 107.196L55.151 108.104L55.2568 109.82L54.7279 110.224L55.5741 111.234L58.9585 105.984L56.4202 100.836V95.9907L54.7279 91.9528L52.1896 83.6752V75.0947C52.9809 74.7205 53.2744 74.1174 53.4588 72.1673C54.0811 70.9085 54.2062 70.307 53.9876 69.4417C51.1627 68.215 48.6745 68.129 43.0939 68.7351C39.2214 69.3049 36.9603 70.107 32.7291 72.5711C31.0792 71.3429 30.3884 70.536 29.8735 68.7351H26.5948L27.5467 74.0853L28.1812 77.6184L29.5562 79.9402L29.1331 88.0159C24.0079 82.7333 21.2509 79.5312 16.5472 73.3787C14.4972 75.0124 13.2703 75.5865 10.836 76.0033C11.7512 78.2692 12.5789 79.3414 14.5377 80.9496L23.4219 92.7604L28.6043 99.221C30.379 102.557 30.9908 104.12 30.9311 105.984Z" fill="#C72334" stroke="#C72334" stroke-width="0.252694"/>
<path d="M51.5551 101.947V101.24V100.937L51.0262 100.836V99.7257L50.3917 99.12H49.2283C48.8999 99.9889 48.5868 100.206 47.8533 100.23V101.038L47.536 101.24V101.846L47.8533 101.947L47.7476 103.259L48.911 104.571L49.8628 104.672C49.7571 104.571 50.5345 103.591 51.2378 103.663V101.947H51.5551Z" fill="#ED6649"/>
<path d="M49.2283 102.754H49.7571L50.4974 102.148V100.634L50.1802 100.331H49.2283L48.911 100.533V102.35L49.2283 102.754Z" fill="#EEFC2A"/>
<path d="M48.2764 101.24V101.745H47.8534V101.24H48.2764Z" fill="#EEFC2A"/>
<path d="M51.2378 101.24V101.745L50.8147 101.846V101.24H51.2378Z" fill="#EEFC2A"/>
<path d="M49.2283 102.754H49.7571L50.4974 102.148V100.634L50.1802 100.331H49.2283L48.911 100.533V102.35L49.2283 102.754Z" stroke="#EEFC2A" stroke-width="0.252694"/>
<path d="M48.2764 101.24V101.745H47.8534V101.24H48.2764Z" stroke="#EEFC2A" stroke-width="0.252694"/>
<path d="M51.2378 101.24V101.745L50.8147 101.846V101.24H51.2378Z" stroke="#EEFC2A" stroke-width="0.252694"/>
<path d="M55.0452 69.5427H54.0934C50.526 67.9367 47.5334 67.8638 40.8729 68.8361L32.6233 72.3692C31.1322 71.3857 30.545 70.6153 29.9792 68.8361H26.7006C27.2318 64.4776 26.8338 61.3364 24.6911 54.2998L22.7873 47.0316L24.6911 49.7572L26.7006 52.9875L35.6905 47.5363L34.6328 45.0127H36.0078L38.3346 46.1231L42.1421 54.2998C43.9719 51.768 45.1888 49.7863 47.6418 45.4165L51.7666 47.5363L50.7089 48.8487L51.0262 49.2524L59.5931 50.2619C62.4159 50.886 63.5791 51.5085 64.7755 53.1894V54.4007C62.0941 60.8665 59.9917 64.1965 55.0452 69.5427Z" fill="#D9D9D9" stroke="#FFFDFD" stroke-width="0.252694"/>
<path d="M35.3732 56.5206L36.1135 55.6121L36.2193 55.5111V58.9433L35.902 59.0443L35.7962 61.467V62.3755L36.4308 62.2746L37.3827 61.9717L38.3346 61.7698L38.7576 61.9717V62.3755H37.8058L37.7 62.5774L36.6424 62.6783V62.8802H36.1135L35.7962 63.284L34.6328 63.385V62.8802L34.9501 62.7793V60.3566H35.3732V58.1357V56.5206Z" fill="black" stroke="black" stroke-width="0.252694"/>
<path d="M31.1426 55.5111C31.6503 55.3496 34.1745 65.5385 35.3732 70.6531L34.7386 71.0569L34.4213 71.4607L33.5752 71.8645L29.1331 56.4196L29.7677 56.0159L34.4213 71.4607L34.7386 71.0569C33.3284 65.9423 30.635 55.6726 31.1426 55.5111Z" fill="#920D1B"/>
<path d="M28.4985 56.0159L33.0464 72.1673L32.6233 72.3692L27.9697 56.0159H28.4985Z" fill="#920D1B"/>
<path d="M35.1617 54.6026L34.7386 55.1073L33.3637 53.6941H34.104L35.1617 54.6026Z" fill="#920D1B"/>
<path d="M35.1617 53.2903L35.479 54.1988H35.3732L34.5271 53.4922L35.1617 53.2903Z" fill="#920D1B"/>
<path d="M35.902 52.9875V53.4922L35.5847 53.5931L35.479 52.9875H35.902Z" fill="#920D1B"/>
<path d="M36.1135 51.978V52.5837H36.2193L35.1617 52.7856L34.104 53.1894L32.7291 53.4922L32.5176 52.9875L33.8925 52.3818L34.9501 51.978H36.1135Z" fill="#920D1B"/>
<path d="M34.7386 71.0569C33.3284 65.9423 30.635 55.6726 31.1426 55.5111C31.6503 55.3496 34.1745 65.5385 35.3732 70.6531L34.7386 71.0569ZM34.7386 71.0569L34.4213 71.4607M34.4213 71.4607L29.7677 56.0159L29.1331 56.4196L33.5752 71.8645L34.4213 71.4607ZM33.0464 72.1673L28.4985 56.0159H27.9697L32.6233 72.3692L33.0464 72.1673ZM34.7386 55.1073L35.1617 54.6026L34.104 53.6941H33.3637L34.7386 55.1073ZM35.479 54.1988L35.1617 53.2903L34.5271 53.4922L35.3732 54.1988H35.479ZM35.902 53.4922V52.9875H35.479L35.5847 53.5931L35.902 53.4922ZM36.1135 52.5837V51.978H34.9501L33.8925 52.3818L32.5176 52.9875L32.7291 53.4922L34.104 53.1894L35.1617 52.7856L36.2193 52.5837H36.1135Z" stroke="#920D1B" stroke-width="0.252694"/>
<path d="M34.5271 44.9117L35.5847 47.4354V47.6373L26.7006 52.6846L22.8931 46.9307L20.1432 38.5521L26.7006 33.2019L28.6043 35.6247L29.9792 38.5521L34.5271 44.9117Z" fill="#C8A286"/>
<path d="M57.0548 42.7919L50.7089 49.0505C58.8961 49.8774 62.3824 50.5319 64.7755 53.0884C65.5642 50.3512 66.4073 49.0192 68.4772 46.9307V44.0032L66.785 40.7729L65.0928 39.4606H62.0256L57.6893 41.3786L57.0548 42.7919Z" fill="#C8A286"/>
<path d="M34.5271 44.9117L35.5847 47.4354V47.6373L26.7006 52.6846L22.8931 46.9307L20.1432 38.5521L26.7006 33.2019L28.6043 35.6247L29.9792 38.5521L34.5271 44.9117Z" stroke="#C8A286" stroke-width="0.252694"/>
<path d="M57.0548 42.7919L50.7089 49.0505C58.8961 49.8774 62.3824 50.5319 64.7755 53.0884C65.5642 50.3512 66.4073 49.0192 68.4772 46.9307V44.0032L66.785 40.7729L65.0928 39.4606H62.0256L57.6893 41.3786L57.0548 42.7919Z" stroke="#C8A286" stroke-width="0.252694"/>
<path d="M20.0375 38.754C22.3468 36.6137 23.7606 35.3628 26.5948 33L23.6334 29.0631C22.8314 25.8443 22.1068 24.3288 20.4605 21.9969L18.6625 19.3723L14.6435 13.2145L13.6916 11.7003L13.3743 9.47951C11.8689 10.1942 10.4938 10.4619 7.45158 10.7918L8.50921 13.2145L11.5764 22.8044L12.3167 26.1357C13.6803 30.6726 14.8406 32.875 17.9222 35.9275L20.0375 38.754Z" fill="white"/>
<path d="M56.949 42.489C61.8586 39.0485 64.1099 38.3627 66.785 40.4701V38.9559L65.5159 37.0379V33.101C65.1194 32.297 64.869 31.7028 64.3525 30.3754L64.1409 28.0537L63.4006 25.4291C62.3896 22.1561 62.2258 20.2951 62.343 16.9495C60.901 15.8747 59.4032 15.9571 55.6798 17.1514C56.1848 21.6395 56.1669 24.1386 55.4683 28.5584L55.0453 31.7887C54.6605 35.4921 54.8958 37.3272 56.3144 40.0663L56.949 42.489Z" fill="white"/>
<path d="M20.0375 38.754C22.3468 36.6137 23.7606 35.3628 26.5948 33L23.6334 29.0631C22.8314 25.8443 22.1068 24.3288 20.4605 21.9969L18.6625 19.3723L14.6435 13.2145L13.6916 11.7003L13.3743 9.47951C11.8689 10.1942 10.4938 10.4619 7.45158 10.7918L8.50921 13.2145L11.5764 22.8044L12.3167 26.1357C13.6803 30.6726 14.8406 32.875 17.9222 35.9275L20.0375 38.754Z" stroke="white" stroke-width="0.252694"/>
<path d="M56.949 42.489C61.8586 39.0485 64.1099 38.3627 66.785 40.4701V38.9559L65.5159 37.0379V33.101C65.1194 32.297 64.869 31.7028 64.3525 30.3754L64.1409 28.0537L63.4006 25.4291C62.3896 22.1561 62.2258 20.2951 62.343 16.9495C60.901 15.8747 59.4032 15.9571 55.6798 17.1514C56.1848 21.6395 56.1669 24.1386 55.4683 28.5584L55.0453 31.7887C54.6605 35.4921 54.8958 37.3272 56.3144 40.0663L56.949 42.489Z" stroke="white" stroke-width="0.252694"/>
<path d="M25.8545 32.1925L26.3833 32.6972C23.2318 34.1297 21.6858 35.1689 19.5087 37.6436L18.9798 37.2398C20.9448 35.0904 22.4629 33.9878 25.8545 32.1925Z" fill="#C72334"/>
<path d="M24.9026 31.3849L25.3257 31.8896C22.0576 33.3636 20.5601 34.4005 18.6625 36.7351L18.2395 36.4322C20.273 33.9344 21.7602 32.8552 24.9026 31.3849Z" fill="#C72334"/>
<path d="M25.8545 32.1925L26.3833 32.6972C23.2318 34.1297 21.6858 35.1689 19.5087 37.6436L18.9798 37.2398C20.9448 35.0904 22.4629 33.9878 25.8545 32.1925Z" stroke="#C72334" stroke-width="0.252694"/>
<path d="M24.9026 31.3849L25.3257 31.8896C22.0576 33.3636 20.5601 34.4005 18.6625 36.7351L18.2395 36.4322C20.273 33.9344 21.7602 32.8552 24.9026 31.3849Z" stroke="#C72334" stroke-width="0.252694"/>
<path d="M66.6793 39.0568V39.6625C62.7277 37.8484 60.587 38.5957 56.8432 41.6814V40.3691C62.4023 37.6188 64.7472 37.0822 66.6793 39.0568Z" fill="#DE3A3A" stroke="#DE3A3A" stroke-width="0.252694"/>
<path d="M12.8455 7.46058L13.3743 9.37856C11.9593 10.1513 10.6543 10.4526 7.55732 10.7918L6.60545 8.77288C10.648 8.9383 12.1257 8.69814 12.8455 7.46058Z" fill="black"/>
<path d="M55.6798 17.0505C59.5647 15.7957 61.0747 15.7234 62.4487 16.8486L62.766 14.6278C60.769 13.6141 59.0719 13.8087 55.151 15.3344L55.6798 17.0505Z" fill="black"/>
<path d="M12.8455 7.46058L13.3743 9.37856C11.9593 10.1513 10.6543 10.4526 7.55732 10.7918L6.60545 8.77288C10.648 8.9383 12.1257 8.69814 12.8455 7.46058Z" stroke="black" stroke-width="0.252694"/>
<path d="M55.6798 17.0505C59.5647 15.7957 61.0747 15.7234 62.4487 16.8486L62.766 14.6278C60.769 13.6141 59.0719 13.8087 55.151 15.3344L55.6798 17.0505Z" stroke="black" stroke-width="0.252694"/>
<path d="M74.4 7.05679C67.9114 9.13773 65.0118 10.6368 62.766 14.6278C60.269 13.4289 58.513 13.6438 54.9395 15.1325L53.8819 12.9117C53.368 11.6152 53.1732 10.6401 53.1415 8.06625C53.4679 7.27354 53.8854 6.88094 54.9395 6.24922L55.151 5.44165L55.7856 5.84543L56.7375 6.55206L57.0548 5.84543V5.44165L57.4778 4.73502L58.5355 5.84543C61.7357 6.43474 63.3426 6.21295 65.8332 4.73502L66.2562 3.92745L67.2081 3.62461L68.2657 4.73502C72.4027 4.50339 73.977 4.63407 74.7173 5.44165C75.4577 6.24922 74.5239 6.42604 74.4 7.05679Z" fill="#B9DD78"/>
<path d="M6.49969 8.57099C10.8945 8.8601 12.3036 8.55883 12.8455 7.15774C12.1394 6.19922 12.7964 4.71906 15.1723 1C13.645 1.97009 12.3303 2.13466 9.35532 1.90852H3.32678C2.05762 1.90852 3.96136 5.03786 3.96136 5.03786L6.49969 8.57099Z" fill="#B9DD78"/>
<path d="M74.4 7.05679C67.9114 9.13773 65.0118 10.6368 62.766 14.6278C60.269 13.4289 58.513 13.6438 54.9395 15.1325L53.8819 12.9117C53.368 11.6152 53.1732 10.6401 53.1415 8.06625C53.4679 7.27354 53.8854 6.88094 54.9395 6.24922L55.151 5.44165L55.7856 5.84543L56.7375 6.55206L57.0548 5.84543V5.44165L57.4778 4.73502L58.5355 5.84543C61.7357 6.43474 63.3426 6.21295 65.8332 4.73502L66.2562 3.92745L67.2081 3.62461L68.2657 4.73502C72.4027 4.50339 73.977 4.63407 74.7173 5.44165C75.4577 6.24922 74.5239 6.42604 74.4 7.05679Z" stroke="#B9DD78" stroke-width="0.252694"/>
<path d="M6.49969 8.57099C10.8945 8.8601 12.3036 8.55883 12.8455 7.15774C12.1394 6.19922 12.7964 4.71906 15.1723 1C13.645 1.97009 12.3303 2.13466 9.35532 1.90852H3.32678C2.05762 1.90852 3.96136 5.03786 3.96136 5.03786L6.49969 8.57099Z" stroke="#B9DD78" stroke-width="0.252694"/>
<defs>
<linearGradient id="paint0_linear_52_81" x1="56.7374" y1="128.495" x2="56.9783" y2="121.227" gradientUnits="userSpaceOnUse">
<stop stop-color="#5B5656"/>
<stop offset="1" stop-color="#C8A286"/>
</linearGradient>
</defs>
</svg>
